<svg xmlns="http://www.w3.org/2000/svg" xmlns:xlink="http://www.w3.org/1999/xlink" width="480" zoomAndPan="magnify" viewBox="0 0 360 359.999987" height="480" preserveAspectRatio="xMidYMid meet" version="1.0"><path stroke-linecap="round" transform="matrix(0.26981, 0, 0, 0.26981, 183.637888, 181.631398)" fill="none" stroke-linejoin="round" d="M 379.949846 0.00524379 C 379.949846 -209.835325 209.836234 -379.948936 -0.00433439 -379.948936 C -209.844903 -379.948936 -379.944037 -209.835325 -379.944037 0.00524379 C -379.944037 209.845813 -209.844903 379.944946 -0.00433439 379.944946 C 209.836234 379.944946 379.949846 209.845813 379.949846 0.00524379 Z M 379.949846 0.00524379 " stroke="#313131" stroke-width="3" stroke-opacity="1" stroke-miterlimit="4"/><path fill="#12345c" d="M 220.515625 79.117188 C 220.515625 58.75 204.003906 42.242188 183.636719 42.242188 C 163.273438 42.242188 146.761719 58.75 146.761719 79.117188 C 146.761719 99.484375 163.273438 115.996094 183.636719 115.996094 C 204.003906 115.996094 220.515625 99.484375 220.515625 79.117188 Z M 220.515625 79.117188 " fill-opacity="1" fill-rule="nonzero"/><path fill="#fcba20" d="M 197.023438 58.519531 C 197.023438 58.519531 178.582031 58.519531 178.582031 58.519531 C 178.582031 58.519531 178.582031 76.960938 178.582031 76.960938 C 178.582031 76.960938 197.023438 76.960938 197.023438 76.960938 C 197.023438 76.960938 197.023438 58.519531 197.023438 58.519531 Z M 197.023438 58.519531 " fill-opacity="1" fill-rule="nonzero"/><path stroke-linecap="round" transform="matrix(0.26981, 0, 0, 0.26981, 37.940219, 23.388631)" fill="none" stroke-linejoin="round" d="M 521.261462 164.373333 C 521.261462 164.373333 589.61094 164.373333 589.61094 164.373333 " stroke="#313131" stroke-width="3" stroke-opacity="1" stroke-miterlimit="4"/><path fill="#f6efe3" d="M 190.75 60.816406 C 190.75 60.816406 184.855469 60.816406 184.855469 60.816406 C 184.855469 60.816406 184.855469 58.519531 184.855469 58.519531 C 184.855469 58.519531 190.75 58.519531 190.75 58.519531 C 190.75 58.519531 190.75 60.816406 190.75 60.816406 Z M 190.75 60.816406 " fill-opacity="1" fill-rule="nonzero"/><path fill="#fcba20" d="M 183.636719 76.960938 C 183.636719 76.960938 165.195312 76.960938 165.195312 76.960938 C 165.195312 76.960938 165.195312 95.402344 165.195312 95.402344 C 165.195312 95.402344 183.636719 95.402344 183.636719 95.402344 C 183.636719 95.402344 183.636719 76.960938 183.636719 76.960938 Z M 183.636719 76.960938 " fill-opacity="1" fill-rule="nonzero"/><path fill="#f6efe3" d="M 202.078125 76.960938 C 202.078125 76.960938 183.636719 76.960938 183.636719 76.960938 C 183.636719 76.960938 183.636719 95.402344 183.636719 95.402344 C 183.636719 95.402344 202.078125 95.402344 202.078125 95.402344 C 202.078125 95.402344 202.078125 76.960938 202.078125 76.960938 Z M 202.078125 76.960938 " fill-opacity="1" fill-rule="nonzero"/><path stroke-linecap="round" transform="matrix(0.26981, 0, 0, 0.26981, 37.940219, 23.388631)" fill="none" stroke-linejoin="round" d="M 539.995676 198.555311 C 539.995676 198.555311 539.995676 266.904788 539.995676 266.904788 " stroke="#313131" stroke-width="3" stroke-opacity="1" stroke-miterlimit="4"/><path stroke-linecap="round" transform="matrix(0.26981, 0, 0, 0.26981, 37.940219, 23.388631)" fill="none" stroke-linejoin="round" d="M 548.001874 258.89859 C 548.001874 258.89859 567.43102 258.89859 567.43102 258.89859 " stroke="#313131" stroke-width="3" stroke-opacity="1" stroke-miterlimit="4"/><path stroke-linecap="round" transform="matrix(0.26981, 0, 0, 0.26981, 37.940219, 23.388631)" fill="none" stroke-linejoin="round" d="M 548.001874 252.629723 C 548.001874 252.629723 572.179724 252.629723 572.179724 252.629723 " stroke="#313131" stroke-width="3" stroke-opacity="1" stroke-miterlimit="4"/><path stroke-linecap="round" transform="matrix(0.26981, 0, 0, 0.26981, 37.940219, 23.388631)" fill="none" stroke-linejoin="round" d="M 479.652397 258.89859 C 479.652397 258.89859 499.081543 258.89859 499.081543 258.89859 " stroke="#313131" stroke-width="3" stroke-opacity="1" stroke-miterlimit="4"/><path stroke-linecap="round" transform="matrix(0.26981, 0, 0, 0.26981, 37.940219, 23.388631)" fill="none" stroke-linejoin="round" d="M 479.652397 252.629723 C 479.652397 252.629723 503.815768 252.629723 503.815768 252.629723 " stroke="#313131" stroke-width="3" stroke-opacity="1" stroke-miterlimit="4"/><path fill="#f6efe3" d="M 177.363281 79.257812 C 177.363281 79.257812 171.46875 79.257812 171.46875 79.257812 C 171.46875 79.257812 171.46875 76.960938 171.46875 76.960938 C 171.46875 76.960938 177.363281 76.960938 177.363281 76.960938 C 177.363281 76.960938 177.363281 79.257812 177.363281 79.257812 Z M 177.363281 79.257812 " fill-opacity="1" fill-rule="nonzero"/><path fill="#34538d" d="M 195.804688 79.257812 C 195.804688 79.257812 189.910156 79.257812 189.910156 79.257812 C 189.910156 79.257812 189.910156 76.960938 189.910156 76.960938 C 189.910156 76.960938 195.804688 76.960938 195.804688 76.960938 C 195.804688 76.960938 195.804688 79.257812 195.804688 79.257812 Z M 195.804688 79.257812 " fill-opacity="1" fill-rule="nonzero"/><path fill="#12345c" d="M 76.421875 200.953125 C 58.78125 211.136719 52.738281 233.6875 62.921875 251.328125 C 73.105469 268.964844 95.660156 275.007812 113.296875 264.824219 C 130.933594 254.640625 136.976562 232.085938 126.796875 214.449219 C 116.613281 196.8125 94.058594 190.769531 76.421875 200.953125 Z M 76.421875 200.953125 " fill-opacity="1" fill-rule="nonzero"/><path fill="#fcba20" d="M 117.316406 234.835938 C 117.316406 234.835938 87.410156 234.835938 87.410156 234.835938 C 87.410156 234.835938 87.410156 218.289062 87.410156 218.289062 C 87.410156 217.542969 88.011719 216.9375 88.757812 216.9375 C 88.757812 216.9375 115.96875 216.9375 115.96875 216.9375 C 116.714844 216.9375 117.316406 217.542969 117.316406 218.289062 C 117.316406 218.289062 117.316406 234.835938 117.316406 234.835938 Z M 117.316406 234.835938 " fill-opacity="1" fill-rule="nonzero"/><path fill="#34538d" d="M 70.84375 234.835938 C 70.84375 234.835938 117.316406 234.835938 117.316406 234.835938 C 117.316406 234.835938 117.316406 243.167969 117.316406 243.167969 C 117.316406 243.167969 70.84375 243.167969 70.84375 243.167969 C 70.84375 243.167969 70.84375 234.835938 70.84375 234.835938 Z M 70.84375 234.835938 " fill-opacity="1" fill-rule="nonzero"/><path fill="#34538d" d="M 70.84375 236.566406 C 70.84375 236.566406 70.84375 231.390625 70.84375 231.390625 C 70.84375 230.414062 71.230469 229.480469 71.921875 228.789062 C 71.921875 228.789062 78.578125 222.132812 78.578125 222.132812 C 79.265625 221.445312 80.203125 221.058594 81.175781 221.058594 C 81.175781 221.058594 87.410156 221.058594 87.410156 221.058594 C 87.410156 221.058594 87.410156 236.566406 87.410156 236.566406 C 87.410156 236.566406 70.84375 236.566406 70.84375 236.566406 Z M 70.84375 236.566406 " fill-opacity="1" fill-rule="nonzero"/><path fill="#f6efe3" d="M 72.578125 234.835938 C 72.578125 234.835938 72.578125 232.109375 72.578125 232.109375 C 72.578125 231.132812 72.964844 230.199219 73.652344 229.507812 C 73.652344 229.507812 79.296875 223.867188 79.296875 223.867188 C 79.984375 223.179688 80.917969 222.789062 81.894531 222.789062 C 81.894531 222.789062 85.675781 222.789062 85.675781 222.789062 C 85.675781 222.789062 85.675781 234.835938 85.675781 234.835938 C 85.675781 234.835938 72.578125 234.835938 72.578125 234.835938 Z M 72.578125 234.835938 " fill-opacity="1" fill-rule="nonzero"/><path fill="#f6efe3" d="M 86.632812 244.25 C 86.632812 241.71875 84.582031 239.664062 82.046875 239.664062 C 79.515625 239.664062 77.460938 241.71875 77.460938 244.25 C 77.460938 246.785156 79.515625 248.835938 82.046875 248.835938 C 84.582031 248.835938 86.632812 246.785156 86.632812 244.25 Z M 86.632812 244.25 " fill-opacity="1" fill-rule="nonzero"/><path fill="#f6efe3" d="M 114.222656 244.25 C 114.222656 241.71875 112.167969 239.664062 109.636719 239.664062 C 107.105469 239.664062 105.050781 241.71875 105.050781 244.25 C 105.050781 246.785156 107.105469 248.835938 109.636719 248.835938 C 112.167969 248.835938 114.222656 246.785156 114.222656 244.25 Z M 114.222656 244.25 " fill-opacity="1" fill-rule="nonzero"/><path fill="#34538d" d="M 84.589844 244.25 C 84.589844 242.847656 83.453125 241.707031 82.046875 241.707031 C 80.644531 241.707031 79.503906 242.847656 79.503906 244.25 C 79.503906 245.65625 80.644531 246.792969 82.046875 246.792969 C 83.453125 246.792969 84.589844 245.65625 84.589844 244.25 Z M 84.589844 244.25 " fill-opacity="1" fill-rule="nonzero"/><path fill="#34538d" d="M 112.179688 244.25 C 112.179688 242.847656 111.039062 241.707031 109.636719 241.707031 C 108.230469 241.707031 107.09375 242.847656 107.09375 244.25 C 107.09375 245.65625 108.230469 246.792969 109.636719 246.792969 C 111.039062 246.792969 112.179688 245.65625 112.179688 244.25 Z M 112.179688 244.25 " fill-opacity="1" fill-rule="nonzero"/><path fill="#f6efe3" d="M 72.394531 243.167969 C 72.394531 243.167969 69.703125 243.167969 69.703125 243.167969 C 69.703125 243.167969 69.703125 239.664062 69.703125 239.664062 C 69.703125 239.664062 72.394531 239.664062 72.394531 239.664062 C 72.394531 239.664062 72.394531 243.167969 72.394531 243.167969 Z M 72.394531 243.167969 " fill-opacity="1" fill-rule="nonzero"/><path fill="#fcba20" d="M 72.394531 239.664062 C 72.394531 239.664062 69.703125 239.664062 69.703125 239.664062 C 69.703125 239.664062 69.703125 236.164062 69.703125 236.164062 C 69.703125 236.164062 72.394531 236.164062 72.394531 236.164062 C 72.394531 236.164062 72.394531 239.664062 72.394531 239.664062 Z M 72.394531 239.664062 " fill-opacity="1" fill-rule="nonzero"/><path fill="#f6efe3" d="M 107.515625 222.804688 C 107.515625 222.804688 94.601562 222.804688 94.601562 222.804688 C 94.601562 222.804688 94.601562 220.191406 94.601562 220.191406 C 94.601562 220.191406 110.125 220.191406 110.125 220.191406 C 110.125 221.632812 108.957031 222.804688 107.515625 222.804688 Z M 107.515625 222.804688 " fill-opacity="1" fill-rule="nonzero"/><path fill="#f6efe3" d="M 104.824219 227.191406 C 104.824219 227.191406 94.601562 227.191406 94.601562 227.191406 C 94.601562 227.191406 94.601562 224.582031 94.601562 224.582031 C 94.601562 224.582031 107.433594 224.582031 107.433594 224.582031 C 107.433594 226.023438 106.265625 227.191406 104.824219 227.191406 Z M 104.824219 227.191406 " fill-opacity="1" fill-rule="nonzero"/><path fill="#f6efe3" d="M 102.132812 231.582031 C 102.132812 231.582031 94.601562 231.582031 94.601562 231.582031 C 94.601562 231.582031 94.601562 228.96875 94.601562 228.96875 C 94.601562 228.96875 104.746094 228.96875 104.746094 228.96875 C 104.746094 230.410156 103.578125 231.582031 102.132812 231.582031 Z M 102.132812 231.582031 " fill-opacity="1" fill-rule="nonzero"/><path fill="#12345c" d="M 253.980469 264.824219 C 271.617188 275.007812 294.167969 268.964844 304.351562 251.328125 C 314.535156 233.6875 308.492188 211.136719 290.855469 200.953125 C 273.21875 190.769531 250.664062 196.8125 240.480469 214.449219 C 230.296875 232.085938 236.339844 254.640625 253.980469 264.824219 Z M 253.980469 264.824219 " fill-opacity="1" fill-rule="nonzero"/><path fill="#f6efe3" d="M 272.417969 212.523438 C 264.832031 212.523438 258.683594 218.671875 258.683594 226.257812 C 258.683594 239.925781 272.417969 253.253906 272.417969 253.253906 C 272.417969 253.253906 286.152344 239.925781 286.152344 226.257812 C 286.152344 218.671875 280.003906 212.523438 272.417969 212.523438 Z M 272.417969 233.859375 C 268.21875 233.859375 264.8125 230.457031 264.8125 226.257812 C 264.8125 222.054688 268.21875 218.648438 272.417969 218.648438 C 276.617188 218.648438 280.023438 222.054688 280.023438 226.257812 C 280.023438 230.457031 276.617188 233.859375 272.417969 233.859375 Z M 272.417969 233.859375 " fill-opacity="1" fill-rule="nonzero"/><path fill="#fcba20" d="M 183.636719 146.984375 C 183.636719 146.984375 150.824219 162.605469 150.824219 162.605469 C 150.824219 162.605469 183.636719 178.230469 183.636719 178.230469 C 183.636719 178.230469 216.453125 162.605469 216.453125 162.605469 C 216.453125 162.605469 183.636719 146.984375 183.636719 146.984375 Z M 183.636719 146.984375 " fill-opacity="1" fill-rule="nonzero"/><path fill="#fcba20" d="M 183.636719 216.28125 C 183.636719 216.28125 150.824219 200.65625 150.824219 200.65625 C 150.824219 200.65625 150.824219 162.605469 150.824219 162.605469 C 150.824219 162.605469 183.636719 178.230469 183.636719 178.230469 C 183.636719 178.230469 183.636719 216.28125 183.636719 216.28125 Z M 183.636719 216.28125 " fill-opacity="1" fill-rule="nonzero"/><path fill="#fcba20" d="M 183.636719 216.28125 C 183.636719 216.28125 216.453125 200.65625 216.453125 200.65625 C 216.453125 200.65625 216.453125 162.605469 216.453125 162.605469 C 216.453125 162.605469 183.636719 178.230469 183.636719 178.230469 C 183.636719 178.230469 183.636719 216.28125 183.636719 216.28125 Z M 183.636719 216.28125 " fill-opacity="1" fill-rule="nonzero"/><path stroke-linecap="round" transform="matrix(0.26981, 0, 0, 0.26981, 183.637888, 162.605992)" fill="none" stroke-linejoin="round" d="M 121.623278 -0.00193922 C 121.623278 -0.00193922 -0.00433439 57.909077 -0.00433439 57.909077 C -0.00433439 57.909077 -121.617469 -0.00193922 -121.617469 -0.00193922 C -121.617469 -0.00193922 -0.00433439 -57.898478 -0.00433439 -57.898478 " stroke="#313131" stroke-width="3" stroke-opacity="1" stroke-miterlimit="4"/><path stroke-linecap="round" transform="matrix(0.26981, 0, 0, 0.26981, 37.940219, 23.388631)" fill="none" stroke-linejoin="round" d="M 539.995676 573.891087 C 539.995676 573.891087 539.995676 714.918891 539.995676 714.918891 " stroke="#313131" stroke-width="3" stroke-opacity="1" stroke-miterlimit="4"/><path stroke-linecap="round" transform="matrix(0.26981, 0, 0, 0.26981, 183.637888, 162.605992)" fill="none" stroke-linejoin="round" d="M 60.816711 -28.957448 C 60.816711 -28.957448 -60.810902 28.953569 -60.810902 28.953569 " stroke="#313131" stroke-width="3" stroke-opacity="1" stroke-miterlimit="4"/></svg>