<svg xmlns="http://www.w3.org/2000/svg" xmlns:xlink="http://www.w3.org/1999/xlink" zoomAndPan="magnify" viewBox="0 0 360 360" preserveAspectRatio="xMidYMid meet" version="1.0"><defs><clipPath id="0c0397ba2a"><path d="M 36 63.070312 L 132 63.070312 L 132 156 L 36 156 Z M 36 63.070312 " clip-rule="nonzero"/></clipPath></defs><path fill="#34548d" d="M 257.960938 165.214844 C 257.960938 165.214844 289.988281 165.214844 289.988281 165.214844 C 289.988281 165.214844 289.988281 147.65625 289.988281 147.65625 C 289.988281 146.769531 289.269531 146.054688 288.386719 146.054688 C 288.386719 146.054688 259.5625 146.054688 259.5625 146.054688 C 258.679688 146.054688 257.960938 146.769531 257.960938 147.65625 C 257.960938 147.65625 257.960938 165.214844 257.960938 165.214844 Z M 257.960938 165.214844 " fill-opacity="1" fill-rule="nonzero"/><path fill="#e48329" d="M 307.722656 165.214844 C 307.722656 165.214844 257.960938 165.214844 257.960938 165.214844 C 257.960938 165.214844 257.960938 174.136719 257.960938 174.136719 C 257.960938 174.136719 307.722656 174.136719 307.722656 174.136719 C 307.722656 174.136719 307.722656 165.214844 307.722656 165.214844 Z M 307.722656 165.214844 " fill-opacity="1" fill-rule="nonzero"/><path fill="#e48329" d="M 307.722656 167.070312 C 307.722656 167.070312 307.722656 161.527344 307.722656 161.527344 C 307.722656 160.484375 307.308594 159.480469 306.570312 158.742188 C 306.570312 158.742188 299.445312 151.617188 299.445312 151.617188 C 298.707031 150.878906 297.703125 150.464844 296.660156 150.464844 C 296.660156 150.464844 289.988281 150.464844 289.988281 150.464844 C 289.988281 150.464844 289.988281 167.070312 289.988281 167.070312 C 289.988281 167.070312 307.722656 167.070312 307.722656 167.070312 Z M 307.722656 167.070312 " fill-opacity="1" fill-rule="nonzero"/><path fill="#f6efe3" d="M 305.867188 165.214844 C 305.867188 165.214844 305.867188 162.296875 305.867188 162.296875 C 305.867188 161.25 305.453125 160.25 304.714844 159.511719 C 304.714844 159.511719 298.675781 153.472656 298.675781 153.472656 C 297.9375 152.734375 296.9375 152.320312 295.890625 152.320312 C 295.890625 152.320312 291.84375 152.320312 291.84375 152.320312 C 291.84375 152.320312 291.84375 165.214844 291.84375 165.214844 C 291.84375 165.214844 305.867188 165.214844 305.867188 165.214844 Z M 305.867188 165.214844 " fill-opacity="1" fill-rule="nonzero"/><path fill="#f6efe3" d="M 290.816406 175.296875 C 290.816406 172.585938 293.015625 170.386719 295.726562 170.386719 C 298.441406 170.386719 300.636719 172.585938 300.636719 175.296875 C 300.636719 178.007812 298.441406 180.207031 295.726562 180.207031 C 293.015625 180.207031 290.816406 178.007812 290.816406 175.296875 Z M 290.816406 175.296875 " fill-opacity="1" fill-rule="nonzero"/><path fill="#f6efe3" d="M 261.277344 175.296875 C 261.277344 172.585938 263.476562 170.386719 266.1875 170.386719 C 268.898438 170.386719 271.097656 172.585938 271.097656 175.296875 C 271.097656 178.007812 268.898438 180.207031 266.1875 180.207031 C 263.476562 180.207031 261.277344 178.007812 261.277344 175.296875 Z M 261.277344 175.296875 " fill-opacity="1" fill-rule="nonzero"/><path fill="#e48329" d="M 293.003906 175.296875 C 293.003906 173.792969 294.222656 172.574219 295.726562 172.574219 C 297.230469 172.574219 298.453125 173.792969 298.453125 175.296875 C 298.453125 176.800781 297.230469 178.019531 295.726562 178.019531 C 294.222656 178.019531 293.003906 176.800781 293.003906 175.296875 Z M 293.003906 175.296875 " fill-opacity="1" fill-rule="nonzero"/><path fill="#e48329" d="M 263.464844 175.296875 C 263.464844 173.792969 264.683594 172.574219 266.1875 172.574219 C 267.691406 172.574219 268.910156 173.792969 268.910156 175.296875 C 268.910156 176.800781 267.691406 178.019531 266.1875 178.019531 C 264.683594 178.019531 263.464844 176.800781 263.464844 175.296875 Z M 263.464844 175.296875 " fill-opacity="1" fill-rule="nonzero"/><path fill="#f6efe3" d="M 306.0625 174.136719 C 306.0625 174.136719 308.949219 174.136719 308.949219 174.136719 C 308.949219 174.136719 308.949219 170.386719 308.949219 170.386719 C 308.949219 170.386719 306.0625 170.386719 306.0625 170.386719 C 306.0625 170.386719 306.0625 174.136719 306.0625 174.136719 Z M 306.0625 174.136719 " fill-opacity="1" fill-rule="nonzero"/><path fill="#34548d" d="M 306.0625 170.386719 C 306.0625 170.386719 308.949219 170.386719 308.949219 170.386719 C 308.949219 170.386719 308.949219 166.636719 308.949219 166.636719 C 308.949219 166.636719 306.0625 166.636719 306.0625 166.636719 C 306.0625 166.636719 306.0625 170.386719 306.0625 170.386719 Z M 306.0625 170.386719 " fill-opacity="1" fill-rule="nonzero"/><path fill="#f6efe3" d="M 268.460938 152.332031 C 268.460938 152.332031 282.285156 152.332031 282.285156 152.332031 C 282.285156 152.332031 282.285156 149.535156 282.285156 149.535156 C 282.285156 149.535156 265.664062 149.535156 265.664062 149.535156 C 265.664062 151.082031 266.914062 152.332031 268.460938 152.332031 Z M 268.460938 152.332031 " fill-opacity="1" fill-rule="nonzero"/><path fill="#f6efe3" d="M 271.339844 157.03125 C 271.339844 157.03125 282.285156 157.03125 282.285156 157.03125 C 282.285156 157.03125 282.285156 154.234375 282.285156 154.234375 C 282.285156 154.234375 268.542969 154.234375 268.542969 154.234375 C 268.542969 155.78125 269.796875 157.03125 271.339844 157.03125 Z M 271.339844 157.03125 " fill-opacity="1" fill-rule="nonzero"/><path fill="#f6efe3" d="M 274.21875 161.730469 C 274.21875 161.730469 282.285156 161.730469 282.285156 161.730469 C 282.285156 161.730469 282.285156 158.933594 282.285156 158.933594 C 282.285156 158.933594 271.425781 158.933594 271.425781 158.933594 C 271.425781 160.480469 272.675781 161.730469 274.21875 161.730469 Z M 274.21875 161.730469 " fill-opacity="1" fill-rule="nonzero"/><path fill="#f6efe3" d="M 224.390625 122.703125 C 212.167969 122.703125 202.257812 128.742188 202.257812 136.195312 C 202.257812 138.878906 203.546875 141.382812 205.765625 143.484375 C 205.765625 143.484375 202.257812 150.996094 202.257812 150.996094 C 202.257812 150.996094 210.121094 146.507812 210.121094 146.507812 C 213.976562 148.488281 218.953125 149.683594 224.390625 149.683594 C 236.617188 149.683594 246.523438 143.644531 246.523438 136.195312 C 246.523438 128.742188 236.617188 122.703125 224.390625 122.703125 Z M 224.390625 122.703125 " fill-opacity="1" fill-rule="nonzero"/><path fill="#313131" d="M 217.628906 136.597656 C 217.628906 135.382812 216.644531 134.398438 215.429688 134.398438 C 214.214844 134.398438 213.230469 135.382812 213.230469 136.597656 C 213.230469 137.8125 214.214844 138.796875 215.429688 138.796875 C 216.644531 138.796875 217.628906 137.8125 217.628906 136.597656 Z M 217.628906 136.597656 " fill-opacity="1" fill-rule="nonzero"/><path fill="#313131" d="M 226.589844 136.597656 C 226.589844 135.382812 225.605469 134.398438 224.390625 134.398438 C 223.175781 134.398438 222.191406 135.382812 222.191406 136.597656 C 222.191406 137.8125 223.175781 138.796875 224.390625 138.796875 C 225.605469 138.796875 226.589844 137.8125 226.589844 136.597656 Z M 226.589844 136.597656 " fill-opacity="1" fill-rule="nonzero"/><path fill="#313131" d="M 235.550781 136.597656 C 235.550781 135.382812 234.566406 134.398438 233.351562 134.398438 C 232.136719 134.398438 231.152344 135.382812 231.152344 136.597656 C 231.152344 137.8125 232.136719 138.796875 233.351562 138.796875 C 234.566406 138.796875 235.550781 137.8125 235.550781 136.597656 Z M 235.550781 136.597656 " fill-opacity="1" fill-rule="nonzero"/><path fill="#34548d" d="M 163.332031 96.859375 C 163.332031 96.859375 136.09375 96.859375 136.09375 96.859375 C 136.09375 96.859375 136.09375 92.476562 136.09375 92.476562 C 136.09375 90.707031 137.53125 89.273438 139.300781 89.273438 C 139.300781 89.273438 160.128906 89.273438 160.128906 89.273438 C 161.898438 89.273438 163.332031 90.707031 163.332031 92.476562 C 163.332031 92.476562 163.332031 96.859375 163.332031 96.859375 Z M 163.332031 96.859375 " fill-opacity="1" fill-rule="nonzero"/><path fill="#f6efe3" d="M 160.128906 118.488281 C 160.128906 118.488281 139.300781 118.488281 139.300781 118.488281 C 137.53125 118.488281 136.09375 117.050781 136.09375 115.28125 C 136.09375 115.28125 136.09375 96.859375 136.09375 96.859375 C 136.09375 96.859375 163.332031 96.859375 163.332031 96.859375 C 163.332031 96.859375 163.332031 115.28125 163.332031 115.28125 C 163.332031 117.050781 161.898438 118.488281 160.128906 118.488281 Z M 160.128906 118.488281 " fill-opacity="1" fill-rule="nonzero"/><path fill="#e48329" d="M 139.199219 110.085938 C 139.199219 110.085938 142.433594 109.6875 142.433594 109.6875 C 142.644531 110.820312 143.25 111.386719 144.25 111.386719 C 144.703125 111.386719 145.074219 111.265625 145.359375 111.03125 C 145.640625 110.792969 145.785156 110.476562 145.785156 110.078125 C 145.785156 109.808594 145.707031 109.574219 145.550781 109.371094 C 145.398438 109.167969 145.234375 109.027344 145.058594 108.945312 C 144.882812 108.863281 144.578125 108.824219 144.148438 108.824219 C 144.148438 108.824219 142.640625 108.824219 142.640625 108.824219 C 142.640625 108.824219 142.640625 106.234375 142.640625 106.234375 C 142.640625 106.234375 143.914062 106.234375 143.914062 106.234375 C 144.589844 106.234375 145.027344 106.113281 145.222656 105.871094 C 145.414062 105.628906 145.511719 105.375 145.511719 105.117188 C 145.511719 104.789062 145.390625 104.515625 145.148438 104.296875 C 144.90625 104.082031 144.589844 103.972656 144.195312 103.972656 C 143.347656 103.972656 142.828125 104.445312 142.640625 105.386719 C 142.640625 105.386719 139.644531 104.917969 139.644531 104.917969 C 139.914062 103.753906 140.492188 102.859375 141.375 102.226562 C 142.253906 101.597656 143.296875 101.28125 144.503906 101.28125 C 145.859375 101.28125 146.949219 101.601562 147.773438 102.238281 C 148.597656 102.871094 149.007812 103.71875 149.007812 104.78125 C 149.007812 105.417969 148.835938 105.96875 148.488281 106.441406 C 148.140625 106.914062 147.695312 107.234375 147.15625 107.398438 C 148.644531 107.851562 149.390625 108.824219 149.390625 110.3125 C 149.390625 111.5 148.9375 112.421875 148.03125 113.078125 C 147.128906 113.738281 145.953125 114.066406 144.511719 114.066406 C 141.617188 114.066406 139.847656 112.738281 139.199219 110.085938 Z M 139.199219 110.085938 " fill-opacity="1" fill-rule="nonzero"/><path fill="#e48329" d="M 155.304688 114.066406 C 153.808594 114.066406 152.625 113.476562 151.753906 112.296875 C 150.882812 111.121094 150.445312 109.570312 150.445312 107.652344 C 150.445312 105.683594 150.890625 104.128906 151.785156 102.988281 C 152.679688 101.851562 153.875 101.28125 155.371094 101.28125 C 156.9375 101.28125 158.140625 101.890625 158.976562 103.105469 C 159.8125 104.316406 160.230469 105.871094 160.230469 107.761719 C 160.230469 109.6875 159.78125 111.21875 158.882812 112.355469 C 157.980469 113.496094 156.789062 114.066406 155.304688 114.066406 Z M 155.34375 111.429688 C 155.863281 111.429688 156.210938 111.097656 156.386719 110.433594 C 156.5625 109.773438 156.652344 108.863281 156.652344 107.714844 C 156.652344 106.132812 156.535156 105.101562 156.300781 104.617188 C 156.066406 104.132812 155.75 103.890625 155.351562 103.890625 C 154.867188 103.890625 154.53125 104.210938 154.347656 104.847656 C 154.164062 105.488281 154.070312 106.367188 154.070312 107.488281 C 154.070312 109.007812 154.164062 110.042969 154.347656 110.597656 C 154.53125 111.152344 154.863281 111.429688 155.34375 111.429688 Z M 155.34375 111.429688 " fill-opacity="1" fill-rule="nonzero"/><path fill="#f6efe3" d="M 93.921875 120.613281 C 109.144531 120.613281 121.484375 128.136719 121.484375 137.414062 C 121.484375 140.757812 119.878906 143.875 117.117188 146.496094 C 117.117188 146.496094 135.8125 164.03125 135.8125 164.03125 C 135.8125 164.03125 111.691406 150.257812 111.691406 150.257812 C 106.890625 152.726562 100.691406 154.214844 93.921875 154.214844 C 78.699219 154.214844 66.355469 146.691406 66.355469 137.414062 C 66.355469 128.136719 78.699219 120.613281 93.921875 120.613281 Z M 93.921875 120.613281 " fill-opacity="1" fill-rule="nonzero"/><path fill="#34548d" d="M 94.335938 115.9375 C 94.335938 115.9375 56.160156 115.9375 56.160156 115.9375 C 56.160156 115.9375 56.160156 144.0625 56.160156 144.0625 C 56.160156 144.0625 94.335938 144.0625 94.335938 144.0625 C 94.335938 144.0625 94.335938 115.9375 94.335938 115.9375 Z M 94.335938 115.9375 " fill-opacity="1" fill-rule="nonzero"/><path fill="#34548d" d="M 103.292969 115.9375 C 103.292969 115.9375 94.335938 115.9375 94.335938 115.9375 C 94.335938 115.9375 94.335938 144.0625 94.335938 144.0625 C 94.335938 144.0625 103.292969 144.0625 103.292969 144.0625 C 103.292969 144.0625 103.292969 115.9375 103.292969 115.9375 Z M 103.292969 115.9375 " fill-opacity="1" fill-rule="nonzero"/><path stroke-linecap="round" transform="matrix(0.320355, 0, 0, 0.320355, 36.000293, 66.914277)" fill="none" stroke-linejoin="round" d="M 73.196623 230.553894 C 73.196623 230.553894 98.156703 230.553894 98.156703 230.553894 " stroke="#313131" stroke-width="3" stroke-opacity="1" stroke-miterlimit="4"/><path stroke-linecap="round" transform="matrix(0.320355, 0, 0, 0.320355, 36.000293, 66.914277)" fill="none" stroke-linejoin="round" d="M 73.196623 222.493995 C 73.196623 222.493995 104.253449 222.493995 104.253449 222.493995 " stroke="#313131" stroke-width="3" stroke-opacity="1" stroke-miterlimit="4"/><path stroke-linecap="round" transform="matrix(0.320355, 0, 0, 0.320355, 36.000293, 66.914277)" fill="none" stroke-linejoin="round" d="M 182.096708 153.027666 C 182.096708 153.027666 182.096708 240.820815 182.096708 240.820815 " stroke="#313131" stroke-width="3" stroke-opacity="1" stroke-miterlimit="4"/><path fill="#34548d" d="M 100.742188 109.058594 C 100.742188 109.058594 109.699219 109.058594 109.699219 109.058594 C 109.699219 109.058594 103.292969 115.9375 103.292969 115.9375 C 103.292969 115.9375 94.335938 115.9375 94.335938 115.9375 C 94.335938 115.9375 100.742188 109.058594 100.742188 109.058594 Z M 100.742188 109.058594 " fill-opacity="1" fill-rule="nonzero"/><path fill="#34548d" d="M 58.707031 109.058594 C 58.707031 109.058594 49.75 109.058594 49.75 109.058594 C 49.75 109.058594 56.160156 115.9375 56.160156 115.9375 C 56.160156 115.9375 65.113281 115.9375 65.113281 115.9375 C 65.113281 115.9375 58.707031 109.058594 58.707031 109.058594 Z M 58.707031 109.058594 " fill-opacity="1" fill-rule="nonzero"/><path stroke-linecap="round" transform="matrix(0.320355, 0, 0, 0.320355, 36.000293, 66.914277)" fill="none" stroke-linejoin="round" d="M 62.929702 153.027666 C 62.929702 153.027666 210.056387 153.027666 210.056387 153.027666 " stroke="#313131" stroke-width="3" stroke-opacity="1" stroke-miterlimit="4"/><g clip-path="url(#0c0397ba2a)"><path stroke-linecap="butt" transform="matrix(0.320355, 0, 0, 0.320355, 79.725586, 104.935641)" fill="none" stroke-linejoin="miter" d="M -20.530794 3.785787 C -20.530794 3.785787 -8.593364 15.97928 -8.593364 15.97928 C -8.593364 15.97928 20.524697 -15.979865 20.524697 -15.979865 " stroke="#e48329" stroke-width="10" stroke-opacity="1" stroke-miterlimit="10"/></g><path fill="#34548d" d="M 114.511719 207.75 C 106.390625 222.609375 97.128906 230.210938 92.394531 239.539062 C 87.660156 248.871094 93.085938 263.210938 106.390625 262.519531 C 119.695312 261.828125 131.613281 249.5625 141.808594 232.285156 C 152.003906 215.007812 153.199219 185.460938 141.628906 183.558594 C 130.058594 181.660156 122.628906 192.890625 114.511719 207.75 Z M 114.511719 207.75 " fill-opacity="1" fill-rule="nonzero"/><path fill="#f4b78d" d="M 87.933594 188.539062 C 87.933594 188.539062 85.210938 181.738281 85.210938 181.738281 C 85.210938 181.738281 85.796875 178.324219 85.230469 175.089844 C 84.667969 171.855469 81.570312 172.316406 81.570312 172.316406 C 81.570312 172.316406 80.394531 166.722656 79.863281 162.367188 C 79.332031 158.007812 78.492188 155.511719 76.714844 155.886719 C 74.941406 156.261719 75.253906 158.898438 75.648438 162.273438 C 76.042969 165.648438 76.148438 169.316406 76.148438 169.316406 C 76.148438 169.316406 74.710938 167.863281 73.070312 168.285156 C 71.425781 168.707031 71.613281 170.613281 71.613281 170.613281 C 71.613281 170.613281 70.4375 169.695312 68.984375 170.398438 C 67.527344 171.101562 67.996094 173.121094 67.996094 173.121094 C 67.996094 173.121094 66.851562 172.53125 65.804688 173.472656 C 64.757812 174.414062 64.933594 175.496094 65.0625 177.351562 C 65.191406 179.210938 65.792969 182.75 67.523438 185.429688 C 69.253906 188.109375 72.640625 189.164062 72.640625 189.164062 C 72.640625 189.164062 73.484375 194.566406 73.484375 194.566406 C 73.484375 194.566406 78.425781 197.402344 82.042969 195.148438 C 85.65625 192.894531 87.933594 188.539062 87.933594 188.539062 Z M 87.933594 188.539062 " fill-opacity="1" fill-rule="nonzero"/><path stroke-linecap="round" transform="matrix(0.320355, 0, 0, 0.320355, 77.638791, 177.784438)" fill="none" stroke-linejoin="round" d="M 12.272379 -17.068648 C 12.272379 -17.068648 -6.5056 -11.093836 -9.383265 -4.850768 C -12.260929 1.3923 -6.5056 3.62371 -2.981681 3.306679 C 0.542239 2.989648 6.139052 -0.0587253 6.139052 -0.0587253 C 6.139052 -0.0587253 2.359069 3.952934 1.054365 8.744977 C -0.262532 13.549213 1.054365 17.073132 1.054365 17.073132 " stroke="#313131" stroke-width="2" stroke-opacity="1" stroke-miterlimit="4"/><path stroke-linecap="round" transform="matrix(0.320355, 0, 0, 0.320355, 77.199265, 171.464782)" fill="none" stroke-linejoin="round" d="M -3.280193 -6.70623 C -3.280193 -6.70623 3.279906 6.706612 3.279906 6.706612 " stroke="#313131" stroke-width="2" stroke-opacity="1" stroke-miterlimit="4"/><path stroke-linecap="round" transform="matrix(0.320355, 0, 0, 0.320355, 73.123383, 173.421198)" fill="none" stroke-linejoin="round" d="M -4.713835 -8.765007 C -4.713835 -8.765007 4.711735 8.757043 4.711735 8.757043 " stroke="#313131" stroke-width="2" stroke-opacity="1" stroke-miterlimit="4"/><path stroke-linecap="round" transform="matrix(0.320355, 0, 0, 0.320355, 71.667049, 176.623786)" fill="none" stroke-linejoin="round" d="M -11.459012 -10.933774 C -11.459012 -10.933774 -2.057829 5.17383 -0.167838 7.734464 C 1.734347 10.295097 6.258133 10.929159 8.477348 9.807358 C 10.696564 8.69775 11.452561 6.198084 11.452561 6.198084 " stroke="#313131" stroke-width="2" stroke-opacity="1" stroke-miterlimit="4"/><path stroke-linecap="round" transform="matrix(0.320355, 0, 0, 0.320355, 69.089152, 180.305962)" fill="none" stroke-linejoin="round" d="M -8.472317 -6.966462 C -8.472317 -6.966462 -4.143627 3.763812 -1.265963 5.361159 C 1.611701 6.958507 5.647748 6.641476 7.062193 3.117556 C 8.464444 -0.394169 7.879157 -3.759574 7.879157 -3.759574 " stroke="#313131" stroke-width="2" stroke-opacity="1" stroke-miterlimit="4"/><path fill="#34548d" d="M 79.097656 192.714844 C 76.179688 195.570312 72.457031 201.964844 73.148438 208.503906 C 73.839844 215.042969 86.140625 257.851562 97.285156 261.59375 C 108.429688 265.339844 117.511719 258.785156 119.488281 246.71875 C 121.464844 234.65625 99.722656 192.136719 93.257812 190.050781 C 86.789062 187.960938 82.015625 189.855469 79.097656 192.714844 Z M 79.097656 192.714844 " fill-opacity="1" fill-rule="nonzero"/><path stroke-linecap="round" transform="matrix(0.320355, 0, 0, 0.320355, 113.849191, 228.241681)" fill="none" stroke-linejoin="round" d="M 17.602612 57.688995 C 21.102144 36.338189 0.812172 -15.545123 -21.099534 -57.685834 " stroke="#313131" stroke-width="2" stroke-opacity="1" stroke-miterlimit="4"/><path fill="#e48329" d="M 88.449219 185.453125 C 85.511719 185.109375 84.441406 188.375 79.660156 190.742188 C 74.878906 193.113281 72.960938 191.496094 71.632812 193.863281 C 70.304688 196.226562 74.894531 202.332031 76.535156 202.886719 C 78.175781 203.441406 81.816406 203.074219 85.394531 200.953125 C 88.972656 198.832031 92.59375 194.429688 92.683594 192.761719 C 92.777344 191.09375 91.390625 185.800781 88.449219 185.453125 Z M 88.449219 185.453125 " fill-opacity="1" fill-rule="nonzero"/><path stroke-linecap="round" transform="matrix(0.320355, 0, 0, 0.320355, 81.512849, 196.53772)" fill="none" stroke-linejoin="round" d="M -30.840872 -8.360545 C -34.986659 -0.971288 -20.659305 18.087142 -15.538038 19.818618 C -10.416771 21.550094 0.947564 20.403905 12.116804 13.782839 C 23.286043 7.161772 34.589411 -6.580295 34.869861 -11.786916 C 34.991796 -13.835423 34.382122 -17.627599 33.053031 -21.54171 " stroke="#313131" stroke-width="2" stroke-opacity="1" stroke-miterlimit="4"/><path fill="#34548d" d="M 231.066406 207.75 C 239.1875 222.609375 248.449219 230.210938 253.183594 239.539062 C 257.917969 248.871094 252.492188 263.210938 239.1875 262.519531 C 225.882812 261.828125 213.960938 249.5625 203.769531 232.285156 C 193.574219 215.007812 192.378906 185.460938 203.949219 183.558594 C 215.515625 181.660156 222.945312 192.890625 231.066406 207.75 Z M 231.066406 207.75 " fill-opacity="1" fill-rule="nonzero"/><path fill="#f4b78d" d="M 278.28125 197.308594 C 278.9375 194.976562 278.648438 193.214844 282.140625 191.574219 C 285.632812 189.933594 288.683594 187.457031 290.664062 187.117188 C 292.648438 186.777344 292.5 188.8125 291.976562 189.882812 C 291.457031 190.949219 289.386719 192.210938 289.386719 192.210938 C 289.386719 192.210938 292.457031 192.363281 296.863281 190.625 C 301.269531 188.886719 302.089844 187.207031 303.46875 186.117188 C 304.847656 185.023438 306.8125 185.28125 306.8125 186.949219 C 306.8125 188.617188 303.902344 191.402344 303.902344 191.402344 C 303.902344 191.402344 306.25 190.074219 307.667969 188.8125 C 309.085938 187.550781 311.363281 188 310.941406 190.222656 C 310.523438 192.445312 307.101562 194.175781 305.757812 195.019531 C 304.417969 195.863281 301.179688 197.136719 301.179688 197.136719 C 301.179688 197.136719 303.644531 196.445312 306.105469 195.40625 C 308.566406 194.371094 309.390625 193.445312 310.742188 193.246094 C 312.09375 193.042969 312.867188 194.625 311.949219 196.003906 C 311.03125 197.382812 309.054688 198.449219 309.054688 198.449219 C 309.054688 198.449219 310.558594 198.285156 310.78125 199.328125 C 311 200.375 310.242188 201.476562 308.289062 202.433594 C 306.335938 203.390625 301.441406 204.671875 298.070312 205.4375 C 294.695312 206.203125 288.792969 207.316406 284.195312 206.511719 C 279.597656 205.707031 277.628906 199.640625 278.28125 197.308594 Z M 278.28125 197.308594 " fill-opacity="1" fill-rule="nonzero"/><path stroke-linecap="round" transform="matrix(0.320355, 0, 0, 0.320355, 299.183714, 192.875418)" fill="none" stroke-linejoin="round" d="M 14.729363 -4.598253 C 14.729363 -4.598253 9.534935 -2.415618 2.121291 0.559595 C -5.292352 3.522613 -14.730116 4.595641 -14.730116 4.595641 " stroke="#313131" stroke-width="2" stroke-opacity="1" stroke-miterlimit="4"/><path stroke-linecap="round" transform="matrix(0.320355, 0, 0, 0.320355, 302.155003, 199.745756)" fill="none" stroke-linejoin="round" d="M 21.537601 -4.047186 C 21.537601 -4.047186 11.185326 -0.462299 2.08898 1.561821 C -7.019559 3.58594 -21.542009 4.049293 -21.542009 4.049293 " stroke="#313131" stroke-width="2" stroke-opacity="1" stroke-miterlimit="4"/><path stroke-linecap="round" transform="matrix(0.320355, 0, 0, 0.320355, 300.565089, 196.462441)" fill="none" stroke-linejoin="round" d="M 18.233383 -3.699323 C 18.233383 -3.699323 9.405294 -0.175403 -0.300727 1.763362 C -10.006747 3.702128 -18.237355 3.250968 -18.237355 3.250968 " stroke="#313131" stroke-width="2" stroke-opacity="1" stroke-miterlimit="4"/><path stroke-linecap="round" transform="matrix(0.320355, 0, 0, 0.320355, 287.681674, 192.697617)" fill="none" stroke-linejoin="round" d="M 5.322354 -1.519186 C 5.322354 -1.519186 -5.322565 1.516994 -5.322565 1.516994 " stroke="#313131" stroke-width="2" stroke-opacity="1" stroke-miterlimit="4"/><path fill="#313131" d="M 172.0625 139.4375 C 164.746094 136.328125 149.257812 152.46875 146.925781 170.183594 C 144.59375 187.902344 152.367188 204.488281 152.367188 204.488281 C 152.367188 204.488281 156.273438 187.546875 162.996094 171.949219 C 169.714844 156.355469 179.378906 142.546875 172.0625 139.4375 Z M 172.0625 139.4375 " fill-opacity="1" fill-rule="nonzero"/><path fill="#34548d" d="M 283.476562 204.039062 C 285.242188 207.71875 286.550781 215 283.664062 220.90625 C 280.777344 226.816406 254.578125 262.835938 242.824219 262.542969 C 231.074219 262.25 224.78125 252.984375 227.050781 240.972656 C 229.320312 228.957031 264.289062 196.441406 271.082031 196.691406 C 277.875 196.941406 281.710938 200.355469 283.476562 204.039062 Z M 283.476562 204.039062 " fill-opacity="1" fill-rule="nonzero"/><path stroke-linecap="round" transform="matrix(0.320355, 0, 0, 0.320355, 239.195261, 225.726897)" fill="none" stroke-linejoin="round" d="M -37.909407 47.59016 C -33.897748 26.336902 2.914407 -15.486779 37.909731 -47.580052 " stroke="#313131" stroke-width="2" stroke-opacity="1" stroke-miterlimit="4"/><path fill="#e48329" d="M 277.171875 194.015625 C 280.050781 194.695312 279.9375 198.132812 283.621094 201.992188 C 287.304688 205.855469 289.660156 204.992188 290.097656 207.667969 C 290.539062 210.34375 284.132812 214.511719 282.402344 214.472656 C 280.671875 214.429688 277.375 212.84375 274.742188 209.625 C 272.105469 206.40625 270.207031 201.03125 270.691406 199.433594 C 271.175781 197.835938 274.292969 193.335938 277.171875 194.015625 Z M 277.171875 194.015625 " fill-opacity="1" fill-rule="nonzero"/><path stroke-linecap="round" transform="matrix(0.320355, 0, 0, 0.320355, 280.37307, 205.60346)" fill="none" stroke-linejoin="round" d="M 30.355628 6.444435 C 31.733493 14.796978 11.736164 27.807435 6.334447 27.6855 C 0.932729 27.551372 -9.358579 22.600813 -17.576993 12.553375 C -25.8076 2.505937 -31.733638 -14.272309 -30.221645 -19.259448 C -29.624164 -21.2226 -27.758559 -24.575811 -25.173539 -27.807086 " stroke="#313131" stroke-width="2" stroke-opacity="1" stroke-miterlimit="4"/><path fill="#f4b78d" d="M 162.902344 187.742188 C 162.902344 187.742188 172.789062 192.730469 172.789062 192.730469 C 172.789062 192.730469 182.855469 187.742188 182.855469 187.742188 C 182.855469 187.742188 182.855469 150.808594 182.855469 150.808594 C 182.855469 150.808594 162.902344 150.808594 162.902344 150.808594 C 162.902344 150.808594 162.902344 187.742188 162.902344 187.742188 Z M 162.902344 187.742188 " fill-opacity="1" fill-rule="nonzero"/><path fill="#313131" d="M 162.902344 179.550781 C 162.902344 179.550781 173.886719 182.625 178.460938 175.183594 C 183.035156 167.742188 184.558594 150.808594 184.558594 150.808594 C 184.558594 150.808594 162.902344 150.808594 162.902344 150.808594 C 162.902344 150.808594 162.902344 179.550781 162.902344 179.550781 Z M 162.902344 179.550781 " fill-opacity="1" fill-rule="nonzero"/><path fill="#34548d" d="M 207.492188 284.886719 C 207.492188 284.886719 207.492188 293.035156 207.492188 293.035156 C 207.492188 293.035156 135.464844 293.035156 135.464844 293.035156 C 135.464844 293.035156 135.464844 284.855469 135.464844 284.855469 C 135.464844 284.855469 127.566406 265.851562 129.074219 240.972656 C 130.125 223.617188 133.730469 202.449219 135.8125 191.234375 C 136.660156 186.679688 140.628906 183.378906 145.261719 183.378906 C 145.261719 183.378906 164.253906 183.378906 164.253906 183.378906 C 164.253906 183.378906 172.789062 192.730469 172.789062 192.730469 C 172.789062 192.730469 181.222656 183.378906 181.222656 183.378906 C 181.222656 183.378906 202.082031 183.378906 202.082031 183.378906 C 206.929688 183.378906 211.019531 186.984375 211.621094 191.796875 C 213.289062 205.148438 216.28125 231.226562 216.28125 246.484375 C 216.28125 267.640625 207.492188 284.886719 207.492188 284.886719 Z M 207.492188 284.886719 " fill-opacity="1" fill-rule="nonzero"/><path stroke-linecap="round" transform="matrix(0.320355, 0, 0, 0.320355, 132.442935, 216.102463)" fill="none" stroke-linejoin="round" d="M -10.515564 77.633158 C -7.235515 23.45747 4.019079 -42.619068 10.518211 -77.626587 " stroke="#313131" stroke-width="2" stroke-opacity="1" stroke-miterlimit="4"/><path stroke-linecap="round" transform="matrix(0.320355, 0, 0, 0.320355, 213.950291, 219.140709)" fill="none" stroke-linejoin="round" d="M -7.27067 -85.354713 C -2.064049 -43.677354 7.276167 37.726404 7.276167 85.354188 " stroke="#313131" stroke-width="2" stroke-opacity="1" stroke-miterlimit="4"/><path fill="#e48329" d="M 172.789062 192.730469 C 172.789062 192.730469 181.484375 179.269531 184.558594 179.550781 C 187.628906 179.832031 192.488281 184.96875 191.554688 187.464844 C 190.617188 189.960938 182.429688 194.707031 180.351562 195.328125 C 178.269531 195.953125 178.164062 191.167969 178.164062 191.167969 C 178.164062 191.167969 172.789062 192.730469 172.789062 192.730469 Z M 172.789062 192.730469 " fill-opacity="1" fill-rule="nonzero"/><path fill="#e48329" d="M 172.789062 192.730469 C 172.789062 192.730469 164.09375 179.269531 161.019531 179.550781 C 157.945312 179.832031 153.089844 184.96875 154.023438 187.464844 C 154.960938 189.960938 163.148438 194.707031 165.226562 195.328125 C 167.308594 195.953125 167.410156 191.167969 167.410156 191.167969 C 167.410156 191.167969 172.789062 192.730469 172.789062 192.730469 Z M 172.789062 192.730469 " fill-opacity="1" fill-rule="nonzero"/><path stroke-linecap="round" transform="matrix(0.320355, 0, 0, 0.320355, 170.662932, 238.807628)" fill="none" stroke-linejoin="round" d="M 6.636788 -143.831426 C 6.636788 -143.831426 -6.641926 -72.182462 -6.641926 -1.874782 C -6.641926 68.420705 2.539774 143.837458 2.539774 143.837458 " stroke="#313131" stroke-width="2" stroke-opacity="1" stroke-miterlimit="4"/><path stroke-linecap="round" transform="matrix(0.320355, 0, 0, 0.320355, 194.36217, 211.453783)" fill-opacity="1" fill="#f6efe3" fill-rule="nonzero" stroke-linejoin="miter" d="M 35.19389 -4.294164 C 35.19389 -4.294164 -35.186951 -4.294164 -35.186951 -4.294164 C -35.186951 -4.294164 -35.186951 4.302248 -35.186951 4.302248 C -35.186951 4.302248 35.19389 4.302248 35.19389 4.302248 C 35.19389 4.302248 35.19389 -4.294164 35.19389 -4.294164 Z M 35.19389 -4.294164 " stroke="#313131" stroke-width="2" stroke-opacity="1" stroke-miterlimit="10"/><path stroke-linecap="round" transform="matrix(0.320355, 0, 0, 0.320355, 36.000293, 66.914277)" fill="none" stroke-linejoin="round" d="M 310.481995 680.310879 C 310.481995 680.310879 535.31781 680.310879 535.31781 680.310879 " stroke="#313131" stroke-width="2" stroke-opacity="1" stroke-miterlimit="4"/><path stroke-linecap="round" transform="matrix(0.320355, 0, 0, 0.320355, 36.000293, 66.914277)" fill="none" stroke-linejoin="round" d="M 422.893806 680.408427 C 422.893806 680.408427 422.893806 705.844053 422.893806 705.844053 " stroke="#313131" stroke-width="2" stroke-opacity="1" stroke-miterlimit="4"/><path stroke-linecap="round" transform="matrix(0.320355, 0, 0, 0.320355, 182.372234, 189.66545)" fill="none" stroke-linejoin="round" d="M 24.273685 -19.635854 C 27.821992 -15.087681 29.919273 -10.210284 28.663343 -6.869267 C 25.736904 0.922375 0.179343 15.737469 -6.307595 17.688428 C -12.806727 19.627193 -13.135951 4.690164 -13.135951 4.690164 C -13.135951 4.690164 -29.914197 9.567561 -29.914197 9.567561 " stroke="#313131" stroke-width="2" stroke-opacity="1" stroke-miterlimit="4"/><path stroke-linecap="round" transform="matrix(0.320355, 0, 0, 0.320355, 163.205384, 189.665786)" fill="none" stroke-linejoin="round" d="M -24.272103 -19.62471 C -27.832603 -15.08873 -29.91769 -10.211333 -28.661761 -6.870316 C -25.735322 0.921326 -0.177761 15.73642 6.309177 17.687379 C 12.808309 19.626144 13.12534 4.701309 13.12534 4.701309 C 13.12534 4.701309 29.915779 9.566512 29.915779 9.566512 " stroke="#313131" stroke-width="2" stroke-opacity="1" stroke-miterlimit="4"/><path fill="#f4b78d" d="M 192.148438 147.191406 C 192.148438 136.5 183.480469 127.832031 172.789062 127.832031 C 162.097656 127.832031 153.429688 136.5 153.429688 147.191406 C 153.429688 157.882812 156.324219 176.972656 172.417969 176.972656 C 188.507812 176.972656 192.148438 157.882812 192.148438 147.191406 Z M 192.148438 147.191406 " fill-opacity="1" fill-rule="nonzero"/><path stroke-linecap="round" transform="matrix(0.320355, 0, 0, 0.320355, 173.729686, 159.235535)" fill="none" stroke-linejoin="round" d="M -1.82658 -10.490026 C -1.82658 -10.490026 2.953269 7.30028 2.953269 7.30028 C 2.953269 7.30028 -2.960575 10.494975 -2.960575 10.494975 " stroke="#313131" stroke-width="2" stroke-opacity="1" stroke-miterlimit="4"/><path fill="#e48329" d="M 148.054688 155.117188 C 147.972656 154.445312 146.148438 138.609375 154.707031 128.941406 C 158.894531 124.207031 164.851562 121.808594 172.417969 121.808594 C 179.984375 121.808594 185.960938 124.210938 190.1875 128.945312 C 198.8125 138.613281 197.113281 154.441406 197.035156 155.109375 C 197.035156 155.109375 195.445312 154.929688 195.445312 154.929688 C 195.460938 154.769531 197.132812 139.132812 188.984375 130.007812 C 185.078125 125.628906 179.503906 123.410156 172.417969 123.410156 C 165.335938 123.410156 159.78125 125.625 155.910156 129.996094 C 147.828125 139.121094 149.625 154.765625 149.644531 154.921875 C 149.644531 154.921875 148.054688 155.117188 148.054688 155.117188 Z M 148.054688 155.117188 " fill-opacity="1" fill-rule="nonzero"/><path fill="#34548d" d="M 152.304688 145.976562 C 152.304688 145.976562 151.289062 145.976562 151.289062 145.976562 C 147.753906 145.976562 144.882812 148.847656 144.882812 152.382812 C 144.882812 152.382812 144.882812 157.652344 144.882812 157.652344 C 144.882812 161.191406 147.753906 164.058594 151.289062 164.058594 C 151.289062 164.058594 152.304688 164.058594 152.304688 164.058594 C 152.304688 164.058594 152.304688 145.976562 152.304688 145.976562 Z M 152.304688 145.976562 " fill-opacity="1" fill-rule="nonzero"/><path fill="#e48329" d="M 154.25 144.011719 C 153.175781 144.011719 152.304688 144.882812 152.304688 145.957031 C 152.304688 145.957031 152.304688 164.082031 152.304688 164.082031 C 152.304688 165.15625 153.175781 166.023438 154.25 166.023438 C 155.324219 166.023438 156.191406 165.15625 156.191406 164.082031 C 156.191406 164.082031 156.191406 145.957031 156.191406 145.957031 C 156.191406 144.882812 155.324219 144.011719 154.25 144.011719 Z M 154.25 144.011719 " fill-opacity="1" fill-rule="nonzero"/><path fill="#34548d" d="M 192.527344 145.976562 C 192.527344 145.976562 193.542969 145.976562 193.542969 145.976562 C 197.082031 145.976562 199.949219 148.847656 199.949219 152.382812 C 199.949219 152.382812 199.949219 157.652344 199.949219 157.652344 C 199.949219 161.191406 197.082031 164.058594 193.542969 164.058594 C 193.542969 164.058594 192.527344 164.058594 192.527344 164.058594 C 192.527344 164.058594 192.527344 145.976562 192.527344 145.976562 Z M 192.527344 145.976562 " fill-opacity="1" fill-rule="nonzero"/><path fill="#e48329" d="M 190.585938 144.011719 C 191.65625 144.011719 192.527344 144.882812 192.527344 145.957031 C 192.527344 145.957031 192.527344 164.082031 192.527344 164.082031 C 192.527344 165.15625 191.65625 166.023438 190.585938 166.023438 C 189.511719 166.023438 188.640625 165.15625 188.640625 164.082031 C 188.640625 164.082031 188.640625 145.957031 188.640625 145.957031 C 188.640625 144.882812 189.511719 144.011719 190.585938 144.011719 Z M 190.585938 144.011719 " fill-opacity="1" fill-rule="nonzero"/><path stroke-linecap="round" transform="matrix(0.320355, 0, 0, 0.320355, 36.000293, 66.914277)" fill="none" stroke-linejoin="round" d="M 363.048143 251.916893 C 363.048143 251.916893 363.048143 303.312466 363.048143 303.312466 " stroke="#313131" stroke-width="2" stroke-opacity="1" stroke-miterlimit="4"/><path fill="#34548d" d="M 179.84375 125.199219 C 177.621094 124.542969 175.121094 124.210938 172.417969 124.210938 C 169.789062 124.210938 167.355469 124.527344 165.183594 125.148438 C 165.183594 125.148438 164.304688 122.066406 164.304688 122.066406 C 166.761719 121.363281 169.492188 121.007812 172.417969 121.007812 C 175.429688 121.007812 178.230469 121.386719 180.75 122.128906 C 180.75 122.128906 179.84375 125.199219 179.84375 125.199219 Z M 179.84375 125.199219 " fill-opacity="1" fill-rule="nonzero"/><path stroke-linecap="round" transform="matrix(0.320355, 0, 0, 0.320355, 164.744365, 123.606273)" fill="none" stroke-linejoin="round" d="M 1.371068 4.801724 C 1.371068 4.801724 -1.372468 -4.806748 -1.372468 -4.806748 " stroke="#313131" stroke-width="2" stroke-opacity="1" stroke-miterlimit="4"/><path stroke-linecap="round" transform="matrix(0.320355, 0, 0, 0.320355, 180.297926, 123.664574)" fill="none" stroke-linejoin="round" d="M 1.411164 -4.79364 C 1.411164 -4.79364 -1.417726 4.790445 -1.417726 4.790445 " stroke="#313131" stroke-width="2" stroke-opacity="1" stroke-miterlimit="4"/><path fill="#313131" d="M 169.070312 133.859375 C 169.070312 133.859375 170.054688 140.296875 174.972656 145.210938 C 179.886719 150.128906 185.070312 150.753906 185.519531 150.484375 C 185.964844 150.21875 181.855469 148.074219 179.53125 144.945312 C 177.207031 141.816406 175.808594 137.078125 175.808594 137.078125 C 175.808594 137.078125 178.023438 142.261719 183.203125 145.390625 C 188.378906 148.519531 193.40625 151.238281 195.003906 150.253906 C 196.605469 149.265625 196.871094 133.324219 185.695312 127.515625 C 174.523438 121.703125 166.835938 126.621094 166.835938 126.621094 C 166.835938 126.621094 157.945312 124.597656 152.761719 133.320312 C 147.578125 142.046875 148.324219 148.851562 150.558594 149.390625 C 152.792969 149.925781 154.699219 147.082031 161.570312 141.679688 C 168.441406 136.277344 169.070312 133.859375 169.070312 133.859375 Z M 169.070312 133.859375 " fill-opacity="1" fill-rule="nonzero"/><path stroke-linecap="round" transform="matrix(0.320355, 0, 0, 0.320355, 159.427113, 167.922292)" fill="none" stroke-linejoin="round" d="M -28.158931 -21.510622 C -28.158931 -21.510622 -28.768605 -0.428073 -8.588375 10.546071 C 11.591856 21.508021 28.772488 15.521016 28.772488 15.521016 " stroke="#34548d" stroke-width="2" stroke-opacity="1" stroke-miterlimit="4"/><path fill="#e48329" d="M 170.945312 172.894531 C 170.945312 172.117188 169.914062 171.488281 168.644531 171.488281 C 167.371094 171.488281 166.34375 172.117188 166.34375 172.894531 C 166.34375 173.671875 167.371094 174.300781 168.644531 174.300781 C 169.914062 174.300781 170.945312 173.671875 170.945312 172.894531 Z M 170.945312 172.894531 " fill-opacity="1" fill-rule="nonzero"/><path stroke-linecap="round" transform="matrix(0.320355, 0, 0, 0.320355, 36.000293, 66.914277)" fill="none" stroke-linejoin="round" d="M 488.604539 303.312466 C 488.604539 303.312466 488.604539 251.916893 488.604539 251.916893 " stroke="#313131" stroke-width="2" stroke-opacity="1" stroke-miterlimit="4"/><path fill="#313131" d="M 169.347656 148.511719 C 169.445312 147.953125 167.386719 146.289062 164.570312 145.792969 C 161.753906 145.296875 159.246094 146.152344 159.148438 146.714844 C 159.050781 147.273438 161.363281 147.496094 164.179688 147.996094 C 166.996094 148.492188 169.25 149.074219 169.347656 148.511719 Z M 169.347656 148.511719 " fill-opacity="1" fill-rule="nonzero"/><path fill="#f6efe3" d="M 159.351562 152.941406 C 159.351562 152.941406 161 156.402344 163.707031 156.878906 C 166.410156 157.355469 169.144531 154.667969 169.144531 154.667969 C 169.144531 154.667969 167.496094 151.207031 164.789062 150.730469 C 162.085938 150.253906 159.351562 152.941406 159.351562 152.941406 Z M 159.351562 152.941406 " fill-opacity="1" fill-rule="nonzero"/><path fill="#313131" d="M 168.136719 153.269531 C 168.148438 152.6875 166.503906 150.808594 164.710938 150.683594 C 162.976562 150.5625 161.84375 151.53125 161.84375 153.269531 C 161.84375 155.003906 163.253906 156.414062 164.992188 156.414062 C 166.730469 156.414062 168.109375 155.003906 168.136719 153.269531 Z M 168.136719 153.269531 " fill-opacity="1" fill-rule="nonzero"/><path fill="#313131" d="M 176.230469 148.511719 C 176.128906 147.953125 178.191406 146.289062 181.007812 145.792969 C 183.824219 145.296875 186.332031 146.152344 186.429688 146.714844 C 186.527344 147.273438 184.214844 147.496094 181.398438 147.996094 C 178.582031 148.492188 176.328125 149.074219 176.230469 148.511719 Z M 176.230469 148.511719 " fill-opacity="1" fill-rule="nonzero"/><path fill="#f6efe3" d="M 186.226562 152.941406 C 186.226562 152.941406 184.578125 156.402344 181.871094 156.878906 C 179.167969 157.355469 176.433594 154.667969 176.433594 154.667969 C 176.433594 154.667969 178.082031 151.207031 180.785156 150.730469 C 183.492188 150.253906 186.226562 152.941406 186.226562 152.941406 Z M 186.226562 152.941406 " fill-opacity="1" fill-rule="nonzero"/><path fill="#313131" d="M 178.644531 153.269531 C 178.644531 151.53125 179.890625 150.683594 181.628906 150.683594 C 183.367188 150.683594 184.9375 151.53125 184.9375 153.269531 C 184.9375 155.003906 183.527344 156.414062 181.789062 156.414062 C 180.050781 156.414062 178.644531 155.003906 178.644531 153.269531 Z M 178.644531 153.269531 " fill-opacity="1" fill-rule="nonzero"/><path fill="#313131" d="M 179.167969 165.847656 C 179.167969 165.847656 176.351562 166.265625 172.878906 166.265625 C 169.40625 166.265625 166.589844 165.847656 166.589844 165.847656 C 166.589844 165.847656 169.328125 169.070312 172.878906 169.070312 C 176.433594 169.070312 179.167969 165.847656 179.167969 165.847656 Z M 179.167969 165.847656 " fill-opacity="1" fill-rule="nonzero"/></svg>