<svg xmlns="http://www.w3.org/2000/svg" xmlns:xlink="http://www.w3.org/1999/xlink" zoomAndPan="magnify" viewBox="0 0 360 360" preserveAspectRatio="xMidYMid meet" version="1.0"><path fill="#34548d" d="M 117.695312 171.976562 C 117.695312 171.976562 61.535156 171.976562 61.535156 171.976562 C 61.535156 171.976562 61.535156 196.445312 61.535156 196.445312 C 61.535156 196.445312 117.695312 196.445312 117.695312 196.445312 C 117.695312 196.445312 117.695312 171.976562 117.695312 171.976562 Z M 117.695312 171.976562 " fill-opacity="1" fill-rule="nonzero"/><path fill="#f6efe3" d="M 115.941406 176.832031 C 115.941406 176.832031 115.941406 191.585938 115.941406 191.585938 C 114.226562 191.585938 112.835938 192.976562 112.835938 194.691406 C 112.835938 194.691406 66.394531 194.691406 66.394531 194.691406 C 66.394531 192.976562 65.003906 191.585938 63.289062 191.585938 C 63.289062 191.585938 63.289062 176.832031 63.289062 176.832031 C 65.003906 176.832031 66.394531 175.445312 66.394531 173.730469 C 66.394531 173.730469 112.835938 173.730469 112.835938 173.730469 C 112.835938 175.445312 114.226562 176.832031 115.941406 176.832031 Z M 115.941406 176.832031 " fill-opacity="1" fill-rule="nonzero"/><path fill="#34548d" d="M 75.6875 184.210938 C 75.6875 182.496094 74.296875 181.105469 72.582031 181.105469 C 70.871094 181.105469 69.480469 182.496094 69.480469 184.210938 C 69.480469 185.921875 70.871094 187.3125 72.582031 187.3125 C 74.296875 187.3125 75.6875 185.921875 75.6875 184.210938 Z M 75.6875 184.210938 " fill-opacity="1" fill-rule="nonzero"/><path fill="#34548d" d="M 109.75 184.210938 C 109.75 182.496094 108.359375 181.105469 106.644531 181.105469 C 104.929688 181.105469 103.542969 182.496094 103.542969 184.210938 C 103.542969 185.921875 104.929688 187.3125 106.644531 187.3125 C 108.359375 187.3125 109.75 185.921875 109.75 184.210938 Z M 109.75 184.210938 " fill-opacity="1" fill-rule="nonzero"/><path fill="#34548d" d="M 96.703125 184.210938 C 96.703125 179.390625 93.53125 175.484375 89.613281 175.484375 C 85.699219 175.484375 82.527344 179.390625 82.527344 184.210938 C 82.527344 189.027344 85.699219 192.933594 89.613281 192.933594 C 93.53125 192.933594 96.703125 189.027344 96.703125 184.210938 Z M 96.703125 184.210938 " fill-opacity="1" fill-rule="nonzero"/><path fill="#f6efe3" d="M 92.75 180.113281 C 92.75 178.382812 91.34375 176.976562 89.613281 176.976562 C 87.882812 176.976562 86.480469 178.382812 86.480469 180.113281 C 86.480469 181.84375 87.882812 184.902344 89.613281 184.902344 C 91.34375 184.902344 92.75 181.84375 92.75 180.113281 Z M 92.75 180.113281 " fill-opacity="1" fill-rule="nonzero"/><path fill="#f6efe3" d="M 94.675781 188.71875 C 94.675781 188.90625 94.660156 189.089844 94.625 189.269531 C 94.625 189.269531 92.914062 190.175781 89.613281 190.175781 C 86.3125 190.175781 84.605469 189.269531 84.605469 189.269531 C 84.570312 189.089844 84.554688 188.90625 84.554688 188.71875 C 84.554688 186.609375 87.941406 185.121094 89.613281 185.121094 C 91.285156 185.121094 94.675781 186.609375 94.675781 188.71875 Z M 94.675781 188.71875 " fill-opacity="1" fill-rule="nonzero"/><path fill="#f6efe3" d="M 91.117188 183.621094 C 91.117188 183.621094 88.113281 183.621094 88.113281 183.621094 C 88.113281 183.621094 88.113281 186.625 88.113281 186.625 C 88.113281 186.625 91.117188 186.625 91.117188 186.625 C 91.117188 186.625 91.117188 183.621094 91.117188 183.621094 Z M 91.117188 183.621094 " fill-opacity="1" fill-rule="nonzero"/><path fill="#f6efe3" d="M 91.117188 183.621094 C 91.117188 183.621094 88.113281 183.621094 88.113281 183.621094 C 88.113281 183.621094 88.113281 186.625 88.113281 186.625 C 88.113281 186.625 91.117188 186.625 91.117188 186.625 C 91.117188 186.625 91.117188 183.621094 91.117188 183.621094 Z M 91.117188 183.621094 " fill-opacity="1" fill-rule="nonzero"/><path fill="#34548d" d="M 104.199219 141.273438 C 104.199219 141.273438 55.5625 169.351562 55.5625 169.351562 C 55.5625 169.351562 67.796875 190.542969 67.796875 190.542969 C 67.796875 190.542969 116.433594 162.464844 116.433594 162.464844 C 116.433594 162.464844 104.199219 141.273438 104.199219 141.273438 Z M 104.199219 141.273438 " fill-opacity="1" fill-rule="nonzero"/><path fill="#f6efe3" d="M 105.109375 146.355469 C 105.109375 146.355469 112.484375 159.132812 112.484375 159.132812 C 111.003906 159.992188 110.492188 161.890625 111.351562 163.375 C 111.351562 163.375 71.132812 186.597656 71.132812 186.597656 C 70.273438 185.113281 68.375 184.601562 66.890625 185.460938 C 66.890625 185.460938 59.511719 172.683594 59.511719 172.683594 C 60.996094 171.824219 61.507812 169.929688 60.648438 168.445312 C 60.648438 168.445312 100.871094 145.222656 100.871094 145.222656 C 101.726562 146.707031 103.625 147.214844 105.109375 146.355469 Z M 105.109375 146.355469 " fill-opacity="1" fill-rule="nonzero"/><path fill="#34548d" d="M 73.9375 172.871094 C 73.082031 171.386719 71.183594 170.878906 69.699219 171.734375 C 68.214844 172.59375 67.703125 174.492188 68.5625 175.976562 C 69.417969 177.460938 71.316406 177.96875 72.800781 177.113281 C 74.285156 176.253906 74.796875 174.355469 73.9375 172.871094 Z M 73.9375 172.871094 " fill-opacity="1" fill-rule="nonzero"/><path fill="#34548d" d="M 103.433594 155.84375 C 102.578125 154.359375 100.679688 153.847656 99.195312 154.707031 C 97.710938 155.5625 97.203125 157.460938 98.058594 158.945312 C 98.917969 160.429688 100.8125 160.9375 102.300781 160.082031 C 103.785156 159.226562 104.292969 157.328125 103.433594 155.84375 Z M 103.433594 155.84375 " fill-opacity="1" fill-rule="nonzero"/><path fill="#34548d" d="M 92.136719 162.363281 C 89.726562 158.191406 85.027344 156.394531 81.636719 158.351562 C 78.246094 160.308594 77.449219 165.28125 79.859375 169.453125 C 82.269531 173.628906 86.96875 175.421875 90.359375 173.464844 C 93.75 171.507812 94.546875 166.539062 92.136719 162.363281 Z M 92.136719 162.363281 " fill-opacity="1" fill-rule="nonzero"/><path fill="#f6efe3" d="M 86.664062 160.792969 C 85.800781 159.292969 83.882812 158.78125 82.382812 159.648438 C 80.882812 160.511719 80.371094 162.429688 81.234375 163.929688 C 82.101562 165.429688 84.847656 167.375 86.34375 166.507812 C 87.84375 165.644531 87.53125 162.292969 86.664062 160.792969 Z M 86.664062 160.792969 " fill-opacity="1" fill-rule="nonzero"/><path fill="#f6efe3" d="M 92.636719 167.285156 C 92.730469 167.445312 92.808594 167.613281 92.867188 167.789062 C 92.867188 167.789062 91.839844 169.425781 88.980469 171.074219 C 86.121094 172.726562 84.191406 172.796875 84.191406 172.796875 C 84.070312 172.65625 83.964844 172.507812 83.871094 172.347656 C 82.816406 170.519531 85.007812 167.535156 86.453125 166.699219 C 87.898438 165.867188 91.582031 165.457031 92.636719 167.285156 Z M 92.636719 167.285156 " fill-opacity="1" fill-rule="nonzero"/><path fill="#f6efe3" d="M 87.003906 164.648438 C 87.003906 164.648438 84.402344 166.148438 84.402344 166.148438 C 84.402344 166.148438 85.90625 168.75 85.90625 168.75 C 85.90625 168.75 88.507812 167.25 88.507812 167.25 C 88.507812 167.25 87.003906 164.648438 87.003906 164.648438 Z M 87.003906 164.648438 " fill-opacity="1" fill-rule="nonzero"/><path stroke-linecap="round" transform="matrix(0.356877, 0, 0, 0.356877, 85.998516, 176.504547)" fill="none" stroke-linejoin="round" d="M -85.284264 -20.043261 C -85.284264 -20.043261 -51.002521 39.336833 -51.002521 39.336833 C -51.002521 39.336833 85.281635 -39.340423 85.281635 -39.340423 " stroke="#313131" stroke-width="2" stroke-opacity="1" stroke-miterlimit="4"/><path fill="#313131" d="M 174.191406 141.949219 C 174.191406 141.949219 147.1875 132.121094 147.1875 132.121094 C 144.90625 131.289062 143.730469 128.769531 144.5625 126.488281 C 144.5625 126.488281 162.792969 76.394531 162.792969 76.394531 C 163.625 74.113281 166.144531 72.9375 168.425781 73.769531 C 168.425781 73.769531 195.429688 83.597656 195.429688 83.597656 C 197.710938 84.425781 198.886719 86.949219 198.058594 89.230469 C 198.058594 89.230469 179.824219 139.320312 179.824219 139.320312 C 178.996094 141.601562 176.472656 142.777344 174.191406 141.949219 Z M 174.191406 141.949219 " fill-opacity="1" fill-rule="nonzero"/><path fill="#f6efe3" d="M 147.890625 130.191406 C 146.671875 129.75 146.046875 128.402344 146.488281 127.1875 C 146.488281 127.1875 164.722656 77.09375 164.722656 77.09375 C 165.164062 75.878906 166.507812 75.253906 167.726562 75.695312 C 167.726562 75.695312 194.730469 85.523438 194.730469 85.523438 C 195.945312 85.964844 196.574219 87.3125 196.128906 88.527344 C 196.128906 88.527344 177.898438 138.621094 177.898438 138.621094 C 177.457031 139.835938 176.109375 140.464844 174.894531 140.019531 C 174.894531 140.019531 147.890625 130.191406 147.890625 130.191406 Z M 147.890625 130.191406 " fill-opacity="1" fill-rule="nonzero"/><path fill="#313131" d="M 184.726562 83.777344 C 184.726562 83.777344 176.511719 80.789062 176.511719 80.789062 C 176.058594 80.625 175.558594 80.855469 175.394531 81.308594 C 175.230469 81.757812 175.464844 82.257812 175.914062 82.421875 C 175.914062 82.421875 184.132812 85.410156 184.132812 85.410156 C 184.582031 85.574219 185.082031 85.34375 185.246094 84.890625 C 185.410156 84.441406 185.175781 83.941406 184.726562 83.777344 Z M 184.726562 83.777344 " fill-opacity="1" fill-rule="nonzero"/><path fill="#34548d" d="M 206.515625 102.585938 C 206.515625 102.585938 194.542969 93.210938 194.542969 93.210938 C 194.542969 93.210938 194.542969 97.976562 194.542969 97.976562 C 194.542969 97.976562 177.511719 97.976562 177.511719 97.976562 C 177.511719 97.976562 177.511719 107.191406 177.511719 107.191406 C 177.511719 107.191406 194.542969 107.191406 194.542969 107.191406 C 194.542969 107.191406 194.542969 111.960938 194.542969 111.960938 C 194.542969 111.960938 206.515625 102.585938 206.515625 102.585938 Z M 206.515625 102.585938 " fill-opacity="1" fill-rule="nonzero"/><path fill="#e48329" d="M 161.324219 115.945312 C 161.324219 115.945312 173.296875 106.570312 173.296875 106.570312 C 173.296875 106.570312 173.296875 111.339844 173.296875 111.339844 C 173.296875 111.339844 190.324219 111.339844 190.324219 111.339844 C 190.324219 111.339844 190.324219 120.550781 190.324219 120.550781 C 190.324219 120.550781 173.296875 120.550781 173.296875 120.550781 C 173.296875 120.550781 173.296875 125.320312 173.296875 125.320312 C 173.296875 125.320312 161.324219 115.945312 161.324219 115.945312 Z M 161.324219 115.945312 " fill-opacity="1" fill-rule="nonzero"/><path fill="#34548d" d="M 297.015625 202.5625 C 297.015625 202.5625 241.964844 182.527344 241.964844 182.527344 C 240.289062 181.914062 239.425781 180.0625 240.035156 178.386719 C 240.035156 178.386719 250.773438 148.882812 250.773438 148.882812 C 251.382812 147.207031 253.234375 146.34375 254.910156 146.953125 C 254.910156 146.953125 309.960938 166.988281 309.960938 166.988281 C 311.636719 167.597656 312.5 169.453125 311.890625 171.128906 C 311.890625 171.128906 301.152344 200.632812 301.152344 200.632812 C 300.542969 202.308594 298.691406 203.171875 297.015625 202.5625 Z M 297.015625 202.5625 " fill-opacity="1" fill-rule="nonzero"/><path fill="#e48329" d="M 292.867188 191.351562 C 293.804688 188.769531 292.476562 185.914062 289.894531 184.976562 C 287.3125 184.035156 284.460938 185.367188 283.519531 187.949219 C 282.582031 190.53125 283.910156 193.382812 286.492188 194.324219 C 289.074219 195.261719 291.925781 193.929688 292.867188 191.351562 Z M 292.867188 191.351562 " fill-opacity="1" fill-rule="nonzero"/><path fill="#f6efe3" d="M 299.273438 193.683594 C 300.210938 191.101562 298.878906 188.246094 296.300781 187.308594 C 293.71875 186.367188 290.867188 187.699219 289.925781 190.28125 C 288.988281 192.859375 290.316406 195.714844 292.898438 196.652344 C 295.480469 197.59375 298.332031 196.261719 299.273438 193.683594 Z M 299.273438 193.683594 " fill-opacity="1" fill-rule="nonzero"/><path fill="#313131" d="M 281.167969 182.507812 C 281.167969 182.507812 248.089844 170.46875 248.089844 170.46875 C 248.089844 170.46875 248.828125 168.4375 248.828125 168.4375 C 248.828125 168.4375 281.910156 180.476562 281.910156 180.476562 C 281.910156 180.476562 281.167969 182.507812 281.167969 182.507812 Z M 281.167969 182.507812 " fill-opacity="1" fill-rule="nonzero"/><path fill="#313131" d="M 272.238281 184.992188 C 272.238281 184.992188 256.589844 179.296875 256.589844 179.296875 C 256.589844 179.296875 257.328125 177.265625 257.328125 177.265625 C 257.328125 177.265625 272.976562 182.960938 272.976562 182.960938 C 272.976562 182.960938 272.238281 184.992188 272.238281 184.992188 Z M 272.238281 184.992188 " fill-opacity="1" fill-rule="nonzero"/><path fill="#313131" d="M 260.5625 184.882812 C 260.5625 184.882812 244.914062 179.191406 244.914062 179.191406 C 244.914062 179.191406 245.65625 177.15625 245.65625 177.15625 C 245.65625 177.15625 261.300781 182.851562 261.300781 182.851562 C 261.300781 182.851562 260.5625 184.882812 260.5625 184.882812 Z M 260.5625 184.882812 " fill-opacity="1" fill-rule="nonzero"/><path fill="#f6efe3" d="M 260.839844 162.996094 C 260.839844 162.996094 252.890625 160.105469 252.890625 160.105469 C 252.390625 159.921875 251.832031 160.179688 251.652344 160.683594 C 251.652344 160.683594 250.261719 164.496094 250.261719 164.496094 C 250.082031 164.996094 250.339844 165.554688 250.84375 165.734375 C 250.84375 165.734375 258.789062 168.628906 258.789062 168.628906 C 259.292969 168.8125 259.847656 168.550781 260.03125 168.050781 C 260.03125 168.050781 261.417969 164.238281 261.417969 164.238281 C 261.601562 163.734375 261.339844 163.179688 260.839844 162.996094 Z M 260.839844 162.996094 " fill-opacity="1" fill-rule="nonzero"/><path stroke-linecap="round" transform="matrix(0.356877, 0, 0, 0.356877, 254.317544, 163.81257)" fill="none" stroke-linejoin="round" d="M 2.875514 -7.892003 C 2.875514 -7.892003 -2.870946 7.891609 -2.870946 7.891609 " stroke="#313131" stroke-width="2" stroke-opacity="1" stroke-miterlimit="4"/><path stroke-linecap="round" transform="matrix(0.356877, 0, 0, 0.356877, 252.952487, 162.334382)" fill="none" stroke-linejoin="round" d="M -4.704836 -1.714106 C -4.704836 -1.714106 4.708413 1.71188 4.708413 1.71188 " stroke="#313131" stroke-width="2" stroke-opacity="1" stroke-miterlimit="4"/><path stroke-linecap="round" transform="matrix(0.356877, 0, 0, 0.356877, 252.322252, 164.067028)" fill="none" stroke-linejoin="round" d="M -4.712058 -1.709262 C -4.712058 -1.709262 4.712137 1.716724 4.712137 1.716724 " stroke="#313131" stroke-width="2" stroke-opacity="1" stroke-miterlimit="4"/><path stroke-linecap="round" transform="matrix(0.356877, 0, 0, 0.356877, 259.358425, 164.665871)" fill="none" stroke-linejoin="round" d="M -4.703962 -1.712587 C -4.703962 -1.712587 4.709288 1.713398 4.709288 1.713398 " stroke="#313131" stroke-width="2" stroke-opacity="1" stroke-miterlimit="4"/><path stroke-linecap="round" transform="matrix(0.356877, 0, 0, 0.356877, 258.727837, 166.398503)" fill="none" stroke-linejoin="round" d="M -4.710195 -1.718649 C -4.710195 -1.718649 4.703055 1.718282 4.703055 1.718282 " stroke="#313131" stroke-width="2" stroke-opacity="1" stroke-miterlimit="4"/><path stroke-linecap="round" transform="matrix(0.356877, 0, 0, 0.356877, 257.363132, 164.921032)" fill="none" stroke-linejoin="round" d="M 2.868176 -7.889443 C 2.868176 -7.889443 -2.867339 7.894169 -2.867339 7.894169 " stroke="#313131" stroke-width="2" stroke-opacity="1" stroke-miterlimit="4"/><path fill="#e48329" d="M 143.125 252.917969 C 136.894531 264.96875 130.941406 278.574219 121.808594 286.78125 C 112.675781 294.988281 102.382812 294.296875 97.542969 287 C 92.703125 279.699219 97.042969 259.117188 111.050781 239.179688 C 125.054688 219.242188 137.941406 209.554688 148.480469 215.464844 C 159.015625 221.371094 149.351562 240.863281 143.125 252.917969 Z M 143.125 252.917969 " fill-opacity="1" fill-rule="nonzero"/><path fill="#e48329" d="M 214.605469 252.917969 C 220.832031 264.96875 223 272.5625 232.132812 280.769531 C 241.269531 288.972656 252.320312 289.160156 257.160156 281.863281 C 262 274.566406 260.683594 259.117188 246.679688 239.179688 C 232.671875 219.242188 219.785156 209.554688 209.25 215.464844 C 198.710938 221.371094 208.375 240.863281 214.605469 252.917969 Z M 214.605469 252.917969 " fill-opacity="1" fill-rule="nonzero"/><path fill="#313131" d="M 199.757812 229.53125 C 199.757812 229.53125 158.253906 229.53125 158.253906 229.53125 C 158.253906 229.53125 158.253906 168.6875 158.253906 168.6875 C 158.253906 168.6875 199.757812 168.6875 199.757812 168.6875 C 199.757812 168.6875 199.757812 229.53125 199.757812 229.53125 Z M 199.757812 229.53125 " fill-opacity="1" fill-rule="nonzero"/><path fill="#f4b78d" d="M 169.113281 213.164062 C 169.113281 213.164062 179.078125 218.195312 179.078125 218.195312 C 179.078125 218.195312 189.230469 213.164062 189.230469 213.164062 C 189.230469 213.164062 189.230469 175.925781 189.230469 175.925781 C 189.230469 175.925781 169.113281 175.925781 169.113281 175.925781 C 169.113281 175.925781 169.113281 213.164062 169.113281 213.164062 Z M 169.113281 213.164062 " fill-opacity="1" fill-rule="nonzero"/><path fill="#313131" d="M 169.113281 204.90625 C 169.113281 204.90625 180.1875 208.007812 184.800781 200.503906 C 189.410156 193 190.945312 175.925781 190.945312 175.925781 C 190.945312 175.925781 169.113281 175.925781 169.113281 175.925781 C 169.113281 175.925781 169.113281 204.90625 169.113281 204.90625 Z M 169.113281 204.90625 " fill-opacity="1" fill-rule="nonzero"/><path fill="#e48329" d="M 221.480469 300.566406 C 221.480469 300.566406 136.246094 300.566406 136.246094 300.566406 C 136.246094 300.566406 130.054688 224.789062 130.054688 224.789062 C 129.546875 218.554688 134.46875 213.210938 140.726562 213.210938 C 140.726562 213.210938 174.476562 213.210938 174.476562 213.210938 C 174.476562 213.210938 179.078125 218.378906 179.078125 218.378906 C 179.078125 218.378906 184.335938 213.210938 184.335938 213.210938 C 184.335938 213.210938 217 213.210938 217 213.210938 C 223.257812 213.210938 228.179688 218.554688 227.671875 224.789062 C 227.671875 224.789062 221.480469 300.566406 221.480469 300.566406 Z M 221.480469 300.566406 " fill-opacity="1" fill-rule="nonzero"/><path stroke-linecap="round" transform="matrix(0.356877, 0, 0, 0.356877, 133.151627, 262.677577)" fill="none" stroke-linejoin="round" d="M 8.670956 106.167671 C 8.670956 106.167671 -8.677883 -106.166788 -8.677883 -106.166788 " stroke="#313131" stroke-width="2" stroke-opacity="1" stroke-miterlimit="4"/><path stroke-linecap="round" transform="matrix(0.356877, 0, 0, 0.356877, 224.576444, 262.677577)" fill="none" stroke-linejoin="round" d="M 8.673656 -106.166788 C 8.673656 -106.166788 -8.675182 106.167671 -8.675182 106.167671 " stroke="#313131" stroke-width="2" stroke-opacity="1" stroke-miterlimit="4"/><path stroke-linecap="round" transform="matrix(0.356877, 0, 0, 0.356877, 168.118837, 242.583614)" fill="none" stroke-linejoin="round" d="M -8.027775 -78.342377 C -8.027775 -78.342377 -30.105129 -49.861824 -30.105129 -49.861824 C -30.105129 -49.861824 -6.550113 -29.196457 -6.550113 -29.196457 C -6.550113 -29.196457 -19.520696 -2.292075 -19.520696 -2.292075 C -19.520696 -2.292075 30.106833 78.333505 30.106833 78.333505 " stroke="#313131" stroke-width="2" stroke-opacity="1" stroke-miterlimit="4"/><path stroke-linecap="round" transform="matrix(0.356877, 0, 0, 0.356877, 189.609265, 242.583614)" fill="none" stroke-linejoin="round" d="M 8.023461 -78.342377 C 8.023461 -78.342377 30.111761 -49.861824 30.111761 -49.861824 C 30.111761 -49.861824 6.5458 -29.196457 6.5458 -29.196457 C 6.5458 -29.196457 19.516382 -2.292075 19.516382 -2.292075 C 19.516382 -2.292075 -30.111147 78.333505 -30.111147 78.333505 " stroke="#313131" stroke-width="2" stroke-opacity="1" stroke-miterlimit="4"/><path fill="#f6efe3" d="M 165.253906 214.625 C 165.253906 214.625 178.863281 270.539062 178.863281 270.539062 C 178.863281 270.539062 192.472656 214.625 192.472656 214.625 C 192.472656 214.625 182.898438 214.625 182.898438 214.625 C 182.898438 214.625 179.078125 218.378906 179.078125 218.378906 C 179.078125 218.378906 175.488281 214.625 175.488281 214.625 C 175.488281 214.625 165.253906 214.625 165.253906 214.625 Z M 165.253906 214.625 " fill-opacity="1" fill-rule="nonzero"/><path stroke-linecap="round" transform="matrix(0.356877, 0, 0, 0.356877, 178.864401, 240.265323)" fill="none" stroke-linejoin="round" d="M 41.294759 -84.827858 C 41.294759 -84.827858 -0.00313872 84.829552 -0.00313872 84.829552 C -0.00313872 84.829552 -41.29009 -84.827858 -41.29009 -84.827858 " stroke="#313131" stroke-width="2" stroke-opacity="1" stroke-miterlimit="4"/><path fill="#f6efe3" d="M 179.078125 218.378906 C 179.078125 218.378906 170.3125 206.304688 167.214844 206.558594 C 164.113281 206.8125 159.214844 211.417969 160.160156 213.660156 C 161.105469 215.898438 165.003906 219.257812 167.101562 219.816406 C 169.199219 220.378906 170.375 216.050781 170.375 216.050781 C 170.375 216.050781 179.078125 218.378906 179.078125 218.378906 Z M 179.078125 218.378906 " fill-opacity="1" fill-rule="nonzero"/><path stroke-linecap="round" transform="matrix(0.356877, 0, 0, 0.356877, 169.417157, 215.183625)" fill="none" stroke-linejoin="round" d="M -21.965625 -14.546843 C -25.183643 -10.901946 -27.077238 -6.972461 -25.938892 -4.268888 C -23.290047 2.002963 -12.366299 11.416213 -6.488491 12.98144 C -0.610682 14.546666 2.683955 2.429843 2.683955 2.429843 C 2.683955 2.429843 27.081785 8.438999 27.081785 8.438999 " stroke="#313131" stroke-width="2" stroke-opacity="1" stroke-miterlimit="4"/><path fill="#f6efe3" d="M 179.078125 218.378906 C 179.078125 218.378906 187.847656 206.304688 190.945312 206.558594 C 194.042969 206.8125 198.945312 211.417969 198 213.660156 C 197.054688 215.898438 193.15625 219.257812 191.058594 219.816406 C 188.960938 220.378906 187.785156 216.050781 187.785156 216.050781 C 187.785156 216.050781 179.078125 218.378906 179.078125 218.378906 Z M 179.078125 218.378906 " fill-opacity="1" fill-rule="nonzero"/><path stroke-linecap="round" transform="matrix(0.356877, 0, 0, 0.356877, 188.63463, 255.278418)" fill="none" stroke-linejoin="round" d="M 22.280228 -126.895808 C 25.487301 -123.25091 27.380896 -119.321426 26.24255 -116.617853 C 23.593705 -110.346001 12.659011 -100.932752 6.792149 -99.367525 C 0.91434 -97.802299 -2.380297 -109.919122 -2.380297 -109.919122 C -2.380297 -109.919122 -27.380137 -103.909966 -27.380137 -103.909966 C -27.380137 -103.909966 -27.380137 126.900732 -27.380137 126.900732 " stroke="#313131" stroke-width="2" stroke-opacity="1" stroke-miterlimit="4"/><path stroke-linecap="round" transform="matrix(0.356877, 0, 0, 0.356877, 36.000004, 52.590339)" fill="none" stroke-linejoin="round" d="M 469.33806 518.088561 C 469.33806 518.088561 516.262016 518.088561 516.262016 518.088561 " stroke="#313131" stroke-width="2" stroke-opacity="1" stroke-miterlimit="4"/><path fill="#f4b78d" d="M 198.597656 172.28125 C 198.597656 161.5 189.859375 152.761719 179.078125 152.761719 C 168.300781 152.761719 159.5625 161.5 159.5625 172.28125 C 159.5625 183.058594 162.480469 202.308594 178.703125 202.308594 C 194.929688 202.308594 198.597656 183.058594 198.597656 172.28125 Z M 198.597656 172.28125 " fill-opacity="1" fill-rule="nonzero"/><path fill="#313131" d="M 159.5625 182.8125 C 159.5625 182.8125 164.4375 169.472656 164.4375 169.472656 C 164.4375 169.472656 165.53125 171.402344 165.53125 171.402344 C 165.53125 171.402344 170.859375 171.402344 170.859375 171.402344 C 170.859375 171.402344 173.316406 162 173.316406 162 C 173.316406 162 173.316406 171.160156 173.316406 171.160156 C 173.316406 171.160156 182.546875 171.320312 182.546875 171.320312 C 182.546875 171.320312 182.753906 164.894531 182.753906 164.894531 C 182.753906 164.894531 184.359375 171.242188 184.359375 171.242188 C 184.359375 171.242188 188.398438 171.160156 188.398438 171.160156 C 188.398438 171.160156 188.039062 166.339844 188.039062 166.339844 C 188.039062 166.339844 190.636719 170.839844 190.636719 170.839844 C 190.636719 170.839844 194.460938 170.917969 194.460938 170.917969 C 194.460938 170.917969 194.824219 169.472656 194.824219 169.472656 C 194.824219 169.472656 197.507812 183.476562 197.507812 183.476562 C 197.507812 183.476562 201.996094 175.257812 199.757812 164.570312 C 197.519531 153.886719 188.226562 149.949219 179.769531 149.464844 C 171.308594 148.984375 161.3125 153.242188 158.761719 164.332031 C 156.207031 175.417969 159.5625 182.8125 159.5625 182.8125 Z M 159.5625 182.8125 " fill-opacity="1" fill-rule="nonzero"/><path fill="#f6efe3" d="M 165.53125 179.640625 C 165.53125 179.640625 167.195312 183.128906 169.921875 183.609375 C 172.648438 184.089844 175.40625 181.382812 175.40625 181.382812 C 175.40625 181.382812 173.742188 177.890625 171.015625 177.410156 C 168.289062 176.929688 165.53125 179.640625 165.53125 179.640625 Z M 165.53125 179.640625 " fill-opacity="1" fill-rule="nonzero"/><path fill="#313131" d="M 171.59375 183.546875 C 173.671875 183.078125 175.40625 181.382812 175.40625 181.382812 C 175.40625 181.382812 173.921875 178.273438 171.464844 177.519531 C 170.230469 177.953125 169.34375 179.128906 169.34375 180.511719 C 169.34375 181.941406 170.292969 183.152344 171.59375 183.546875 Z M 171.59375 183.546875 " fill-opacity="1" fill-rule="nonzero"/><path fill="#f6efe3" d="M 192.628906 179.640625 C 192.628906 179.640625 190.964844 183.128906 188.238281 183.609375 C 185.511719 184.089844 182.753906 181.382812 182.753906 181.382812 C 182.753906 181.382812 184.417969 177.890625 187.144531 177.410156 C 189.871094 176.929688 192.628906 179.640625 192.628906 179.640625 Z M 192.628906 179.640625 " fill-opacity="1" fill-rule="nonzero"/><path fill="#313131" d="M 192.542969 179.804688 C 192.519531 179.691406 192.488281 179.582031 192.449219 179.472656 C 191.945312 179.027344 190.421875 177.78125 188.671875 177.4375 C 187.300781 177.789062 186.28125 179.027344 186.28125 180.511719 C 186.28125 181.941406 187.230469 183.148438 188.53125 183.546875 C 190.738281 182.96875 192.191406 180.472656 192.542969 179.804688 Z M 192.542969 179.804688 " fill-opacity="1" fill-rule="nonzero"/><path fill="#313131" d="M 175.609375 175.171875 C 175.710938 174.609375 173.632812 172.929688 170.792969 172.429688 C 167.953125 171.929688 165.425781 172.792969 165.328125 173.359375 C 165.226562 173.925781 167.5625 174.148438 170.402344 174.652344 C 173.242188 175.152344 175.511719 175.738281 175.609375 175.171875 Z M 175.609375 175.171875 " fill-opacity="1" fill-rule="nonzero"/><path fill="#313131" d="M 182.550781 175.171875 C 182.449219 174.609375 184.527344 172.929688 187.367188 172.429688 C 190.207031 171.929688 192.734375 172.792969 192.832031 173.359375 C 192.933594 173.925781 190.597656 174.148438 187.757812 174.652344 C 184.917969 175.152344 182.648438 175.738281 182.550781 175.171875 Z M 182.550781 175.171875 " fill-opacity="1" fill-rule="nonzero"/><path stroke-linecap="round" transform="matrix(0.356877, 0, 0, 0.356877, 180.028893, 185.985717)" fill="none" stroke-linejoin="round" d="M -1.657134 -9.493631 C -1.657134 -9.493631 2.67734 6.607405 2.67734 6.607405 C 2.67734 6.607405 -2.675078 9.497054 -2.675078 9.497054 " stroke="#313131" stroke-width="2" stroke-opacity="1" stroke-miterlimit="4"/><path stroke-linecap="round" transform="matrix(0.356877, 0, 0, 0.356877, 179.171316, 192.831342)" fill="none" stroke-linejoin="round" d="M -17.391054 -2.898664 C -17.391054 -2.898664 -10.714214 2.902525 0.00156702 2.902525 C 10.717348 2.902525 17.394188 -2.898664 17.394188 -2.898664 " stroke="#313131" stroke-width="2" stroke-opacity="1" stroke-miterlimit="4"/><path fill="#f4b78d" d="M 154.621094 176.398438 C 152.402344 177.671875 152.015625 181.507812 153.808594 184.113281 C 155.605469 186.71875 157.949219 187.523438 160.007812 186.683594 C 162.0625 185.84375 162.613281 182.496094 161.519531 179.503906 C 160.429688 176.511719 156.839844 175.125 154.621094 176.398438 Z M 154.621094 176.398438 " fill-opacity="1" fill-rule="nonzero"/><path stroke-linecap="round" transform="matrix(0.356877, 0, 0, 0.356877, 158.017773, 180.660396)" fill="none" stroke-linejoin="round" d="M -7.744585 -7.071555 C -7.744585 -7.071555 -2.392167 -10.453758 2.675664 -4.565004 C 7.743495 1.32375 4.897629 10.452413 4.897629 10.452413 " stroke="#313131" stroke-width="2" stroke-opacity="1" stroke-miterlimit="4"/><path stroke-linecap="round" transform="matrix(0.356877, 0, 0, 0.356877, 158.560936, 181.389859)" fill="none" stroke-linejoin="round" d="M -4.144014 -1.070527 C -4.144014 -1.070527 -2.52406 -1.574026 -0.181693 -1.070527 C 2.160674 -0.567028 4.15278 1.567372 4.15278 1.567372 " stroke="#313131" stroke-width="2" stroke-opacity="1" stroke-miterlimit="4"/><path fill="#f4b78d" d="M 202.789062 176.398438 C 205.007812 177.671875 205.394531 181.507812 203.597656 184.113281 C 201.804688 186.71875 199.460938 187.523438 197.402344 186.683594 C 195.347656 185.84375 194.796875 182.496094 195.890625 179.503906 C 196.980469 176.511719 200.570312 175.125 202.789062 176.398438 Z M 202.789062 176.398438 " fill-opacity="1" fill-rule="nonzero"/><path stroke-linecap="round" transform="matrix(0.356877, 0, 0, 0.356877, 199.391989, 180.660396)" fill="none" stroke-linejoin="round" d="M 7.745692 -7.071555 C 7.745692 -7.071555 2.393274 -10.453758 -2.685502 -4.565004 C -7.753334 1.32375 -4.896522 10.452413 -4.896522 10.452413 " stroke="#313131" stroke-width="2" stroke-opacity="1" stroke-miterlimit="4"/><path stroke-linecap="round" transform="matrix(0.356877, 0, 0, 0.356877, 198.848823, 181.389859)" fill="none" stroke-linejoin="round" d="M 4.145128 -1.070527 C 4.145128 -1.070527 2.525173 -1.574026 0.182807 -1.070527 C -2.15956 -0.567028 -4.151667 1.567372 -4.151667 1.567372 " stroke="#313131" stroke-width="2" stroke-opacity="1" stroke-miterlimit="4"/><path stroke-linecap="round" transform="matrix(0.356877, 0, 0, 0.356877, 193.405011, 209.947162)" fill-opacity="1" fill="#f4b78d" fill-rule="nonzero" stroke-linejoin="round" d="M -8.041574 -25.223935 C -8.041574 -25.223935 -23.551545 -22.794003 -28.772615 -21.97308 C -33.98274 -21.163103 -39.181918 -24.621925 -37.890333 -29.810158 C -36.587802 -34.987445 -12.573069 -40.055276 -2.842396 -38.49005 C 6.899223 -36.924824 39.18886 14.267932 39.18886 14.267932 C 39.18886 14.267932 10.193861 40.055858 10.193861 40.055858 C 10.193861 40.055858 -5.469349 27.337025 -5.469349 27.337025 C -5.469349 27.337025 -7.308217 32.590932 -12.003896 31.233673 C -16.710521 29.876414 -21.187287 22.083118 -23.190339 18.482003 C -25.182446 14.891833 -22.664949 11.41112 -22.664949 11.41112 C -22.664949 11.41112 -26.517814 11.071805 -27.743725 7.514472 C -28.969637 3.968085 -26.474031 0.881415 -26.474031 0.881415 C -26.474031 0.881415 -30.031364 -0.858942 -29.013419 -6.101903 C -28.006421 -11.35581 -4.703154 -21.721331 -4.703154 -21.721331 C -4.703154 -21.721331 -8.041574 -25.223935 -8.041574 -25.223935 Z M -8.041574 -25.223935 " stroke="#313131" stroke-width="2" stroke-opacity="1" stroke-miterlimit="4"/><path stroke-linecap="round" transform="matrix(0.356877, 0, 0, 0.356877, 188.505081, 207.869076)" fill="none" stroke-linejoin="round" d="M -12.744015 6.693438 C -12.744015 6.693438 12.748379 -6.693079 12.748379 -6.693079 " stroke="#313131" stroke-width="2" stroke-opacity="1" stroke-miterlimit="4"/><path stroke-linecap="round" transform="matrix(0.356877, 0, 0, 0.356877, 188.742414, 212.365735)" fill="none" stroke-linejoin="round" d="M -9.599961 4.634075 C -9.599961 4.634075 9.59869 -4.636882 9.59869 -4.636882 " stroke="#313131" stroke-width="2" stroke-opacity="1" stroke-miterlimit="4"/><path stroke-linecap="round" transform="matrix(0.356877, 0, 0, 0.356877, 190.717009, 217.899124)" fill="none" stroke-linejoin="round" d="M 2.062658 5.054961 C 2.062658 5.054961 -2.063848 -5.047865 -2.063848 -5.047865 " stroke="#313131" stroke-width="2" stroke-opacity="1" stroke-miterlimit="4"/><path stroke-linecap="round" transform="matrix(0.356877, 0, 0, 0.356877, 189.665661, 217.409104)" fill="none" stroke-linejoin="round" d="M 3.049356 1.633848 C 3.049356 1.633848 -3.047366 -1.627953 -3.047366 -1.627953 " stroke="#313131" stroke-width="2" stroke-opacity="1" stroke-miterlimit="4"/><path stroke-linecap="round" transform="matrix(0.356877, 0, 0, 0.356877, 192.687325, 201.927054)" fill="none" stroke-linejoin="round" d="M -2.692137 0.751684 C -2.692137 0.751684 2.693117 -0.747869 2.693117 -0.747869 " stroke="#313131" stroke-width="2" stroke-opacity="1" stroke-miterlimit="4"/><path fill="#e48329" d="M 194.519531 224.242188 C 194.519531 224.242188 207.390625 210.710938 207.390625 210.710938 C 207.390625 210.710938 254.039062 246.699219 259.703125 262.675781 C 265.371094 278.65625 254.121094 291.449219 239.839844 287.140625 C 225.554688 282.828125 194.519531 224.242188 194.519531 224.242188 Z M 194.519531 224.242188 " fill-opacity="1" fill-rule="nonzero"/><path stroke-linecap="round" transform="matrix(0.356877, 0, 0, 0.356877, 219.313233, 248.925302)" fill="none" stroke-linejoin="round" d="M 57.517282 107.082533 C 17.489079 94.998547 -69.474026 -69.164152 -69.474026 -69.164152 C -69.474026 -69.164152 -33.408144 -107.079847 -33.408144 -107.079847 C -33.408144 -107.079847 25.89533 -61.327074 69.46992 -17.774375 " stroke="#313131" stroke-width="2" stroke-opacity="1" stroke-miterlimit="4"/><path stroke-linecap="round" transform="matrix(0.356877, 0, 0, 0.356877, 205.462462, 222.915011)" fill="none" stroke-linejoin="round" d="M -20.582073 22.184153 C -20.582073 22.184153 20.573531 -22.178524 20.573531 -22.178524 " stroke="#313131" stroke-width="2" stroke-opacity="1" stroke-miterlimit="4"/><path fill="#e48329" d="M 111.203125 264.886719 C 128.832031 261.46875 168.40625 273.886719 168.40625 273.886719 C 168.40625 273.886719 164.125 296.667969 164.125 296.667969 C 164.125 296.667969 117.203125 299.238281 104.046875 293.523438 C 90.890625 287.808594 93.574219 268.300781 111.203125 264.886719 Z M 111.203125 264.886719 " fill-opacity="1" fill-rule="nonzero"/><path stroke-linecap="round" transform="matrix(0.356877, 0, 0, 0.356877, 139.804186, 267.678495)" fill="none" stroke-linejoin="round" d="M -80.142567 -7.82279 C -30.744896 -17.400225 80.145377 17.395963 80.145377 17.395963 " stroke="#313131" stroke-width="2" stroke-opacity="1" stroke-miterlimit="4"/><path fill="#34548d" d="M 218.125 300.566406 C 218.125 300.566406 139.605469 300.566406 139.605469 300.566406 C 139.605469 300.566406 139.605469 252.925781 139.605469 252.925781 C 139.605469 248.984375 142.800781 245.789062 146.742188 245.789062 C 146.742188 245.789062 210.988281 245.789062 210.988281 245.789062 C 214.929688 245.789062 218.125 248.984375 218.125 252.925781 C 218.125 252.925781 218.125 300.566406 218.125 300.566406 Z M 218.125 300.566406 " fill-opacity="1" fill-rule="nonzero"/><path stroke-linecap="round" transform="matrix(0.356877, 0, 0, 0.356877, 36.000004, 52.590339)" fill="none" stroke-linejoin="round" d="M 155.44996 694.849691 C 155.44996 694.849691 646.909168 694.849691 646.909168 694.849691 " stroke="#313131" stroke-width="2" stroke-opacity="1" stroke-miterlimit="4"/></svg>