<svg xmlns="http://www.w3.org/2000/svg" xmlns:xlink="http://www.w3.org/1999/xlink" zoomAndPan="magnify" viewBox="0 0 360 360" preserveAspectRatio="xMidYMid meet" version="1.0"><path fill="#e48329" d="M 297.890625 235.546875 C 297.890625 235.546875 197.324219 235.546875 197.324219 235.546875 C 197.324219 235.546875 197.324219 296.5 197.324219 296.5 C 197.324219 296.5 297.890625 296.5 297.890625 296.5 C 297.890625 296.5 297.890625 235.546875 297.890625 235.546875 Z M 297.890625 235.546875 " fill-opacity="1" fill-rule="nonzero"/><path fill="#12345c" d="M 240.980469 242.007812 C 240.980469 242.007812 229.839844 242.007812 229.839844 242.007812 C 229.839844 242.007812 229.839844 235.542969 229.839844 235.542969 C 229.839844 235.542969 240.980469 235.542969 240.980469 235.542969 C 240.980469 235.542969 240.980469 242.007812 240.980469 242.007812 Z M 240.980469 242.007812 " fill-opacity="1" fill-rule="nonzero"/><path stroke-linecap="round" transform="matrix(0.436347, 0, 0, 0.436347, -24.651931, -34.246235)" fill="none" stroke-linejoin="round" d="M 508.715114 618.299907 C 508.715114 618.299907 739.188752 618.299907 739.188752 618.299907 " stroke="#313131" stroke-width="2" stroke-opacity="1" stroke-miterlimit="4"/><path fill="#f6efe3" d="M 222.304688 252.078125 C 222.304688 252.078125 200.019531 252.078125 200.019531 252.078125 C 200.019531 252.078125 200.019531 239.152344 200.019531 239.152344 C 200.019531 239.152344 222.304688 239.152344 222.304688 239.152344 C 222.304688 239.152344 222.304688 252.078125 222.304688 252.078125 Z M 222.304688 252.078125 " fill-opacity="1" fill-rule="nonzero"/><path stroke-linecap="round" transform="matrix(0.436347, 0, 0, 0.436347, -24.651931, -34.246235)" fill="none" stroke-linejoin="round" d="M 683.273493 618.299907 C 683.273493 618.299907 683.273493 757.98958 683.273493 757.98958 " stroke="#313131" stroke-width="2" stroke-opacity="1" stroke-miterlimit="4"/><path fill="#e48329" d="M 249.425781 86.574219 C 249.425781 86.574219 203.578125 86.574219 203.578125 86.574219 C 203.578125 86.574219 203.578125 148.703125 203.578125 148.703125 C 203.578125 148.703125 249.425781 148.703125 249.425781 148.703125 C 249.425781 148.703125 249.425781 86.574219 249.425781 86.574219 Z M 249.425781 86.574219 " fill-opacity="1" fill-rule="nonzero"/><path fill="#12345c" d="M 223.480469 90.316406 C 223.480469 90.316406 218.402344 90.316406 218.402344 90.316406 C 218.402344 90.316406 218.402344 86.574219 218.402344 86.574219 C 218.402344 86.574219 223.480469 86.574219 223.480469 86.574219 C 223.480469 86.574219 223.480469 90.316406 223.480469 90.316406 Z M 223.480469 90.316406 " fill-opacity="1" fill-rule="nonzero"/><path stroke-linecap="round" transform="matrix(0.436347, 0, 0, 0.436347, -24.651931, -34.246235)" fill="none" stroke-linejoin="round" d="M 523.047539 276.890968 C 523.047539 276.890968 628.119168 276.890968 628.119168 276.890968 " stroke="#313131" stroke-width="2" stroke-opacity="1" stroke-miterlimit="4"/><path fill="#f6efe3" d="M 214.964844 96.144531 C 214.964844 96.144531 204.808594 96.144531 204.808594 96.144531 C 204.808594 96.144531 204.808594 88.660156 204.808594 88.660156 C 204.808594 88.660156 214.964844 88.660156 214.964844 88.660156 C 214.964844 88.660156 214.964844 96.144531 214.964844 96.144531 Z M 214.964844 96.144531 " fill-opacity="1" fill-rule="nonzero"/><path stroke-linecap="round" transform="matrix(0.436347, 0, 0, 0.436347, -24.651931, -34.246235)" fill="none" stroke-linejoin="round" d="M 602.632338 276.890968 C 602.632338 276.890968 602.632338 419.275245 602.632338 419.275245 " stroke="#313131" stroke-width="2" stroke-opacity="1" stroke-miterlimit="4"/><path fill="#e48329" d="M 276.726562 39.507812 C 276.726562 39.507812 218.492188 39.507812 218.492188 39.507812 C 218.492188 39.507812 218.492188 74.804688 218.492188 74.804688 C 218.492188 74.804688 276.726562 74.804688 276.726562 74.804688 C 276.726562 74.804688 276.726562 39.507812 276.726562 39.507812 Z M 276.726562 39.507812 " fill-opacity="1" fill-rule="nonzero"/><path fill="#12345c" d="M 243.769531 43.25 C 243.769531 43.25 237.320312 43.25 237.320312 43.25 C 237.320312 43.25 237.320312 39.507812 237.320312 39.507812 C 237.320312 39.507812 243.769531 39.507812 243.769531 39.507812 C 243.769531 39.507812 243.769531 43.25 243.769531 43.25 Z M 243.769531 43.25 " fill-opacity="1" fill-rule="nonzero"/><path stroke-linecap="round" transform="matrix(0.436347, 0, 0, 0.436347, -24.651931, -34.246235)" fill="none" stroke-linejoin="round" d="M 557.226927 169.026261 C 557.226927 169.026261 690.68589 169.026261 690.68589 169.026261 " stroke="#313131" stroke-width="2" stroke-opacity="1" stroke-miterlimit="4"/><path fill="#f6efe3" d="M 232.953125 49.082031 C 232.953125 49.082031 220.050781 49.082031 220.050781 49.082031 C 220.050781 49.082031 220.050781 41.59375 220.050781 41.59375 C 220.050781 41.59375 232.953125 41.59375 232.953125 41.59375 C 232.953125 41.59375 232.953125 49.082031 232.953125 49.082031 Z M 232.953125 49.082031 " fill-opacity="1" fill-rule="nonzero"/><path stroke-linecap="round" transform="matrix(0.436347, 0, 0, 0.436347, -24.651931, -34.246235)" fill="none" stroke-linejoin="round" d="M 658.305888 169.026261 C 658.305888 169.026261 658.305888 249.918077 658.305888 249.918077 " stroke="#313131" stroke-width="2" stroke-opacity="1" stroke-miterlimit="4"/><path fill="#e48329" d="M 263.226562 187.304688 C 263.226562 187.304688 204.988281 187.304688 204.988281 187.304688 C 204.988281 187.304688 204.988281 222.601562 204.988281 222.601562 C 204.988281 222.601562 263.226562 222.601562 263.226562 222.601562 C 263.226562 222.601562 263.226562 187.304688 263.226562 187.304688 Z M 263.226562 187.304688 " fill-opacity="1" fill-rule="nonzero"/><path fill="#12345c" d="M 230.269531 191.046875 C 230.269531 191.046875 223.816406 191.046875 223.816406 191.046875 C 223.816406 191.046875 223.816406 187.304688 223.816406 187.304688 C 223.816406 187.304688 230.269531 187.304688 230.269531 187.304688 C 230.269531 187.304688 230.269531 191.046875 230.269531 191.046875 Z M 230.269531 191.046875 " fill-opacity="1" fill-rule="nonzero"/><path stroke-linecap="round" transform="matrix(0.436347, 0, 0, 0.436347, -24.651931, -34.246235)" fill="none" stroke-linejoin="round" d="M 526.279273 507.740597 C 526.279273 507.740597 659.747188 507.740597 659.747188 507.740597 " stroke="#313131" stroke-width="2" stroke-opacity="1" stroke-miterlimit="4"/><path fill="#f6efe3" d="M 219.453125 196.875 C 219.453125 196.875 206.550781 196.875 206.550781 196.875 C 206.550781 196.875 206.550781 189.390625 206.550781 189.390625 C 206.550781 189.390625 219.453125 189.390625 219.453125 189.390625 C 219.453125 189.390625 219.453125 196.875 219.453125 196.875 Z M 219.453125 196.875 " fill-opacity="1" fill-rule="nonzero"/><path stroke-linecap="round" transform="matrix(0.436347, 0, 0, 0.436347, -24.651931, -34.246235)" fill="none" stroke-linejoin="round" d="M 627.367186 507.740597 C 627.367186 507.740597 627.367186 588.632412 627.367186 588.632412 " stroke="#313131" stroke-width="2" stroke-opacity="1" stroke-miterlimit="4"/><path fill="#e48329" d="M 302.613281 113.40625 C 302.613281 113.40625 244.375 113.40625 244.375 113.40625 C 244.375 113.40625 244.375 148.703125 244.375 148.703125 C 244.375 148.703125 302.613281 148.703125 302.613281 148.703125 C 302.613281 148.703125 302.613281 113.40625 302.613281 113.40625 Z M 302.613281 113.40625 " fill-opacity="1" fill-rule="nonzero"/><path fill="#12345c" d="M 269.65625 117.148438 C 269.65625 117.148438 263.203125 117.148438 263.203125 117.148438 C 263.203125 117.148438 263.203125 113.40625 263.203125 113.40625 C 263.203125 113.40625 269.65625 113.40625 269.65625 113.40625 C 269.65625 113.40625 269.65625 117.148438 269.65625 117.148438 Z M 269.65625 117.148438 " fill-opacity="1" fill-rule="nonzero"/><path stroke-linecap="round" transform="matrix(0.436347, 0, 0, 0.436347, 273.493286, 131.05455)" fill="none" stroke-linejoin="round" d="M 66.735916 -40.445594 C 66.735916 -40.445594 -66.731999 -40.445594 -66.731999 -40.445594 C -66.731999 -40.445594 -66.731999 40.446222 -66.731999 40.446222 " stroke="#313131" stroke-width="2" stroke-opacity="1" stroke-miterlimit="4"/><path fill="#f6efe3" d="M 258.839844 122.980469 C 258.839844 122.980469 245.9375 122.980469 245.9375 122.980469 C 245.9375 122.980469 245.9375 115.492188 245.9375 115.492188 C 245.9375 115.492188 258.839844 115.492188 258.839844 115.492188 C 258.839844 115.492188 258.839844 122.980469 258.839844 122.980469 Z M 258.839844 122.980469 " fill-opacity="1" fill-rule="nonzero"/><path stroke-linecap="round" transform="matrix(0.436347, 0, 0, 0.436347, -24.651931, -34.246235)" fill="none" stroke-linejoin="round" d="M 717.631924 338.383429 C 717.631924 338.383429 717.631924 419.275245 717.631924 419.275245 " stroke="#313131" stroke-width="2" stroke-opacity="1" stroke-miterlimit="4"/><path fill="#12345c" d="M 309.773438 296.5 C 309.773438 296.5 185.441406 296.5 185.441406 296.5 C 185.441406 296.5 185.441406 299.617188 185.441406 299.617188 C 185.441406 299.617188 309.773438 299.617188 309.773438 299.617188 C 309.773438 299.617188 309.773438 296.5 309.773438 296.5 Z M 309.773438 296.5 " fill-opacity="1" fill-rule="nonzero"/><path fill="#12345c" d="M 309.773438 222.601562 C 309.773438 222.601562 185.441406 222.601562 185.441406 222.601562 C 185.441406 222.601562 185.441406 225.722656 185.441406 225.722656 C 185.441406 225.722656 309.773438 225.722656 309.773438 225.722656 C 309.773438 225.722656 309.773438 222.601562 309.773438 222.601562 Z M 309.773438 222.601562 " fill-opacity="1" fill-rule="nonzero"/><path fill="#12345c" d="M 309.773438 148.703125 C 309.773438 148.703125 185.441406 148.703125 185.441406 148.703125 C 185.441406 148.703125 185.441406 151.824219 185.441406 151.824219 C 185.441406 151.824219 309.773438 151.824219 309.773438 151.824219 C 309.773438 151.824219 309.773438 148.703125 309.773438 148.703125 Z M 309.773438 148.703125 " fill-opacity="1" fill-rule="nonzero"/><path fill="#12345c" d="M 309.773438 74.804688 C 309.773438 74.804688 185.441406 74.804688 185.441406 74.804688 C 185.441406 74.804688 185.441406 77.925781 185.441406 77.925781 C 185.441406 77.925781 309.773438 77.925781 309.773438 77.925781 C 309.773438 77.925781 309.773438 74.804688 309.773438 74.804688 Z M 309.773438 74.804688 " fill-opacity="1" fill-rule="nonzero"/><path fill="#12345c" d="M 185.441406 319.8125 C 185.441406 319.8125 188.5625 319.8125 188.5625 319.8125 C 188.5625 319.8125 188.5625 54.613281 188.5625 54.613281 C 188.5625 54.613281 185.441406 54.613281 185.441406 54.613281 C 185.441406 54.613281 185.441406 319.8125 185.441406 319.8125 Z M 185.441406 319.8125 " fill-opacity="1" fill-rule="nonzero"/><path fill="#12345c" d="M 306.65625 319.8125 C 306.65625 319.8125 309.773438 319.8125 309.773438 319.8125 C 309.773438 319.8125 309.773438 54.613281 309.773438 54.613281 C 309.773438 54.613281 306.65625 54.613281 306.65625 54.613281 C 306.65625 54.613281 306.65625 319.8125 306.65625 319.8125 Z M 306.65625 319.8125 " fill-opacity="1" fill-rule="nonzero"/><path fill="#313131" d="M 107.089844 49.96875 C 100.742188 56.460938 99.019531 72.191406 96.246094 83.277344 C 93.476562 94.359375 100.207031 106.101562 111.292969 107.074219 C 122.378906 108.050781 128.386719 99.078125 130.871094 90.359375 C 133.355469 81.640625 134.191406 64.921875 131.398438 55.222656 C 128.605469 45.519531 113.441406 43.480469 107.089844 49.96875 Z M 107.089844 49.96875 " fill-opacity="1" fill-rule="nonzero"/><path fill="#e48329" d="M 129.09375 86.90625 C 135.945312 85.40625 143.699219 93.605469 148.605469 105.699219 C 153.507812 117.792969 162.171875 141.101562 156.335938 147.617188 C 150.5 154.128906 142.769531 152.5 136.933594 144.847656 C 131.101562 137.195312 125.121094 116.808594 123.789062 108.050781 C 122.457031 99.289062 122.242188 88.40625 129.09375 86.90625 Z M 129.09375 86.90625 " fill-opacity="1" fill-rule="nonzero"/><path stroke-linecap="round" transform="matrix(0.436347, 0, 0, 0.436347, 145.89852, 130.071026)" fill="none" stroke-linejoin="round" d="M 22.809942 -8.604671 C 22.809942 -8.604671 10.491755 -13.286656 -4.216662 -6.098063 C -18.925078 1.09053 -22.81032 13.292339 -22.81032 13.292339 " stroke="#313131" stroke-width="2" stroke-opacity="1" stroke-miterlimit="4"/><path fill="#ffdab4" d="M 147.292969 130.859375 C 152.058594 127.785156 156.523438 126.148438 162.941406 122.953125 C 169.359375 119.761719 180.085938 113.40625 180.085938 113.40625 C 180.085938 113.40625 184.648438 121.761719 184.648438 121.761719 C 184.648438 121.761719 170.257812 138.128906 160.734375 144.304688 C 151.210938 150.484375 145.558594 149.945312 142.453125 145.570312 C 139.347656 141.195312 142.527344 133.9375 147.292969 130.859375 Z M 147.292969 130.859375 " fill-opacity="1" fill-rule="nonzero"/><path fill="#ffdab4" d="M 69.363281 304.691406 C 69.363281 304.691406 74.496094 288.960938 74.496094 288.960938 C 74.496094 288.960938 57.378906 288.960938 57.378906 288.960938 C 57.378906 288.960938 54.023438 307.144531 54.023438 307.144531 C 54.023438 307.144531 56.601562 308.796875 61.476562 308.382812 C 66.351562 307.972656 69.363281 304.691406 69.363281 304.691406 Z M 69.363281 304.691406 " fill-opacity="1" fill-rule="nonzero"/><path fill="#ffdab4" d="M 119.023438 304.691406 C 119.023438 304.691406 119.972656 288.960938 119.972656 288.960938 C 119.972656 288.960938 137.085938 288.960938 137.085938 288.960938 C 137.085938 288.960938 134.363281 307.144531 134.363281 307.144531 C 134.363281 307.144531 131.789062 308.796875 126.914062 308.382812 C 122.039062 307.972656 119.023438 304.691406 119.023438 304.691406 Z M 119.023438 304.691406 " fill-opacity="1" fill-rule="nonzero"/><path fill="#313131" d="M 84.382812 157.8125 C 84.382812 157.8125 72.714844 218.023438 70.226562 230.617188 C 67.738281 243.207031 53.34375 293.628906 53.34375 293.628906 C 53.34375 293.628906 75.933594 293.628906 75.933594 293.628906 C 75.933594 293.628906 99.359375 240.707031 101.847656 232.53125 C 104.335938 224.359375 107.742188 188.851562 107.742188 188.851562 C 107.742188 188.851562 116.359375 232.398438 116.359375 232.398438 C 116.359375 232.398438 117.304688 293.628906 117.304688 293.628906 C 117.304688 293.628906 138.402344 293.628906 138.402344 293.628906 C 138.402344 293.628906 146.738281 239.804688 145.570312 228.136719 C 144.402344 216.464844 128.292969 157.8125 128.292969 157.8125 C 128.292969 157.8125 84.382812 157.8125 84.382812 157.8125 Z M 84.382812 157.8125 " fill-opacity="1" fill-rule="nonzero"/><path fill="#12345c" d="M 116.996094 319.8125 C 116.996094 319.8125 116.339844 304.738281 117.859375 302.941406 C 119.375 301.140625 121.117188 306.269531 126.949219 306.199219 C 132.785156 306.125 133.597656 304.011719 136.738281 304.457031 C 139.875 304.894531 145.160156 309.09375 153.425781 311.128906 C 161.691406 313.164062 158.289062 319.8125 158.289062 319.8125 C 158.289062 319.8125 142.675781 319.8125 142.675781 319.8125 C 130.910156 319.8125 125.144531 314.839844 125.144531 314.839844 C 125.144531 314.839844 123.035156 319.8125 123.035156 319.8125 C 123.035156 319.8125 116.996094 319.8125 116.996094 319.8125 Z M 116.996094 319.8125 " fill-opacity="1" fill-rule="nonzero"/><path stroke-linecap="round" transform="matrix(0.436347, 0, 0, 0.436347, 139.993004, 308.363121)" fill="none" stroke-linejoin="round" d="M 2.925489 -4.842758 C 2.925489 -4.842758 -2.920278 4.843491 -2.920278 4.843491 " stroke="#313131" stroke-width="2" stroke-opacity="1" stroke-miterlimit="4"/><path stroke-linecap="round" transform="matrix(0.436347, 0, 0, 0.436347, 142.202676, 309.340524)" fill="none" stroke-linejoin="round" d="M 2.140597 -4.943156 C 2.140597 -4.943156 -2.13854 4.948992 -2.13854 4.948992 " stroke="#313131" stroke-width="2" stroke-opacity="1" stroke-miterlimit="4"/><path fill="#12345c" d="M 51.648438 319.8125 C 51.648438 319.8125 50.992188 304.738281 52.507812 302.941406 C 54.023438 301.140625 55.765625 306.269531 61.601562 306.199219 C 67.433594 306.125 68.246094 304.011719 71.386719 304.457031 C 74.527344 304.894531 79.808594 309.09375 88.074219 311.128906 C 96.339844 313.164062 92.9375 319.8125 92.9375 319.8125 C 92.9375 319.8125 77.324219 319.8125 77.324219 319.8125 C 65.558594 319.8125 59.792969 314.839844 59.792969 314.839844 C 59.792969 314.839844 57.6875 319.8125 57.6875 319.8125 C 57.6875 319.8125 51.648438 319.8125 51.648438 319.8125 Z M 51.648438 319.8125 " fill-opacity="1" fill-rule="nonzero"/><path stroke-linecap="round" transform="matrix(0.436347, 0, 0, 0.436347, 74.643121, 308.363121)" fill="none" stroke-linejoin="round" d="M 2.92164 -4.842758 C 2.92164 -4.842758 -2.924127 4.843491 -2.924127 4.843491 " stroke="#313131" stroke-width="2" stroke-opacity="1" stroke-miterlimit="4"/><path stroke-linecap="round" transform="matrix(0.436347, 0, 0, 0.436347, 76.852779, 309.340524)" fill="none" stroke-linejoin="round" d="M 2.136781 -4.943156 C 2.136781 -4.943156 -2.142357 4.948992 -2.142357 4.948992 " stroke="#313131" stroke-width="2" stroke-opacity="1" stroke-miterlimit="4"/><path fill="#ffdab4" d="M 120.03125 89.742188 C 120.03125 89.742188 114.886719 93.242188 114.886719 93.242188 C 114.886719 93.242188 106.632812 89.742188 106.632812 89.742188 C 106.632812 89.742188 106.632812 63.84375 106.632812 63.84375 C 106.632812 63.84375 120.03125 63.84375 120.03125 63.84375 C 120.03125 63.84375 120.03125 89.742188 120.03125 89.742188 Z M 120.03125 89.742188 " fill-opacity="1" fill-rule="nonzero"/><path fill="#313131" d="M 120.03125 83.996094 C 120.03125 83.996094 115.65625 84.074219 112.449219 78.855469 C 109.242188 73.636719 106.632812 63.84375 106.632812 63.84375 C 106.632812 63.84375 120.03125 63.84375 120.03125 63.84375 C 120.03125 63.84375 120.03125 83.996094 120.03125 83.996094 Z M 120.03125 83.996094 " fill-opacity="1" fill-rule="nonzero"/><path fill="#e48329" d="M 78.386719 166.382812 C 78.386719 166.382812 88.402344 167.425781 99.515625 167.425781 C 110.628906 167.425781 114.386719 163.707031 114.386719 163.707031 C 114.386719 163.707031 116.769531 167.410156 123.886719 167.410156 C 131.003906 167.410156 131.695312 164.234375 131.695312 164.234375 C 131.695312 164.234375 133.191406 125.367188 133.191406 125.367188 C 133.191406 125.367188 139.671875 117.316406 139.902344 108.605469 C 140.085938 101.828125 134.890625 92.324219 132.574219 88.441406 C 131.921875 87.351562 130.746094 86.683594 129.476562 86.683594 C 129.476562 86.683594 118.933594 86.683594 118.933594 86.683594 C 118.933594 86.683594 114.886719 93.242188 114.886719 93.242188 C 114.886719 93.242188 108.652344 86.683594 108.652344 86.683594 C 108.652344 86.683594 90.351562 86.683594 90.351562 86.683594 C 83.949219 86.683594 78.945312 92.214844 79.585938 98.585938 C 79.585938 98.585938 84.664062 148.898438 84.664062 148.898438 C 84.664062 148.898438 78.386719 166.382812 78.386719 166.382812 Z M 78.386719 166.382812 " fill-opacity="1" fill-rule="nonzero"/><path stroke-linecap="round" transform="matrix(0.436347, 0, 0, 0.436347, 136.019646, 123.599551)" fill="none" stroke-linejoin="round" d="M -9.256807 76.178631 C -9.256807 76.178631 -6.481634 4.050991 -6.481634 4.050991 C -6.481634 4.050991 8.370018 -14.399433 8.898196 -34.362774 C 9.256283 -47.746269 0.474203 -65.749085 -5.362612 -76.178364 " stroke="#313131" stroke-width="2" stroke-opacity="1" stroke-miterlimit="4"/><path stroke-linecap="round" transform="matrix(0.436347, 0, 0, 0.436347, 107.979123, 89.650906)" fill-opacity="1" fill="#e48329" fill-rule="nonzero" stroke-linejoin="round" d="M 15.830522 8.230341 C 15.830522 8.230341 1.856184 -13.407056 -3.085415 -12.950496 C -8.018061 -12.502887 -15.833306 -4.248986 -14.329341 -0.229461 C -12.825377 3.781112 0.334314 11.399409 3.682426 12.402052 C 7.021586 13.404695 7.191677 5.723733 7.191677 5.723733 C 7.191677 5.723733 15.830522 8.230341 15.830522 8.230341 Z M 15.830522 8.230341 " stroke="#313131" stroke-width="2" stroke-opacity="1" stroke-miterlimit="4"/><path stroke-linecap="round" transform="matrix(0.436347, 0, 0, 0.436347, 119.890514, 89.855119)" fill-opacity="1" fill="#e48329" fill-rule="nonzero" stroke-linejoin="round" d="M -11.467477 7.762333 C -11.467477 7.762333 -5.433713 -11.243126 0.322532 -11.413217 C 6.078778 -11.574356 11.467985 -1.628494 9.131469 1.048205 C 6.786 3.715952 -0.375737 11.575958 -2.703301 10.653884 C -5.039818 9.740763 -3.696992 4.467934 -3.696992 4.467934 C -3.696992 4.467934 -11.467477 7.762333 -11.467477 7.762333 Z M -11.467477 7.762333 " stroke="#313131" stroke-width="2" stroke-opacity="1" stroke-miterlimit="4"/><path stroke-linecap="round" transform="matrix(0.436347, 0, 0, 0.436347, 116.54767, 128.473555)" fill="none" stroke-linejoin="round" d="M -3.806493 -80.741688 C -3.806493 -80.741688 4.957682 -61.548233 4.957682 -40.609106 C 4.957682 -19.661026 -1.640068 -1.577641 -1.640068 -1.577641 C -1.640068 -1.577641 -4.952371 80.746522 -4.952371 80.746522 " stroke="#313131" stroke-width="2" stroke-opacity="1" stroke-miterlimit="4"/><path fill="#e48329" d="M 91.863281 127.785156 C 88.632812 137.609375 82.816406 157.625 70.855469 152.226562 C 58.894531 146.828125 69.152344 128.808594 72.167969 116.128906 C 75.183594 103.445312 73.152344 94.609375 79.691406 88.996094 C 86.234375 83.382812 96.097656 88.5625 96.238281 97.019531 C 96.375 105.476562 95.089844 117.960938 91.863281 127.785156 Z M 91.863281 127.785156 " fill-opacity="1" fill-rule="nonzero"/><path stroke-linecap="round" transform="matrix(0.436347, 0, 0, 0.436347, 78.793652, 132.686034)" fill="none" stroke-linejoin="round" d="M 16.631568 23.941464 C 16.631568 23.941464 19.263507 5.347805 7.724158 -8.698151 C -3.81519 -22.735155 -19.266637 -23.943698 -19.266637 -23.943698 " stroke="#313131" stroke-width="2" stroke-opacity="1" stroke-miterlimit="4"/><path stroke-linecap="round" transform="matrix(0.436347, 0, 0, 0.436347, 89.937069, 122.238154)" fill="none" stroke-linejoin="round" d="M 14.440839 -57.794922 C 14.754165 -38.413472 11.808901 -9.793382 4.414407 12.712375 C 0.305361 25.191701 -5.620976 44.859621 -14.761142 57.795508 " stroke="#313131" stroke-width="2" stroke-opacity="1" stroke-miterlimit="4"/><path fill="#ffdab4" d="M 78.390625 147.699219 C 87.246094 141.5625 75.164062 126.90625 70.558594 120.644531 C 65.953125 114.386719 58.335938 105.828125 58.335938 105.828125 C 58.335938 105.828125 47.644531 109.71875 47.644531 109.71875 C 47.644531 109.71875 54.964844 127.234375 59.910156 136.144531 C 64.851562 145.054688 69.539062 153.835938 78.390625 147.699219 Z M 78.390625 147.699219 " fill-opacity="1" fill-rule="nonzero"/><path stroke-linecap="round" transform="matrix(0.436347, 0, 0, 0.436347, 69.013808, 120.202601)" fill="none" stroke-linejoin="round" d="M 24.470446 32.94519 C 18.821626 20.725477 8.93843 8.353576 3.540271 1.012796 C -7.014339 -13.328581 -24.471072 -32.95174 -24.471072 -32.95174 " stroke="#313131" stroke-width="2" stroke-opacity="1" stroke-miterlimit="4"/><path fill="#12345c" d="M 82.164062 122.363281 C 82.164062 122.363281 73.167969 83.277344 73.167969 83.277344 C 73.167969 83.277344 47.59375 83.277344 47.59375 83.277344 C 47.59375 83.277344 56.265625 122.363281 56.265625 122.363281 C 56.265625 122.363281 82.164062 122.363281 82.164062 122.363281 Z M 82.164062 122.363281 " fill-opacity="1" fill-rule="nonzero"/><path fill="#313131" d="M 64.476562 81.4375 C 64.476562 81.4375 54.6875 81.4375 54.6875 81.4375 C 54.6875 81.4375 55.410156 85.117188 55.410156 85.117188 C 55.410156 85.117188 65.199219 85.117188 65.199219 85.117188 C 65.199219 85.117188 64.476562 81.4375 64.476562 81.4375 Z M 64.476562 81.4375 " fill-opacity="1" fill-rule="nonzero"/><path fill="#ffdab4" d="M 49.277344 113.128906 C 51.613281 113.847656 53.851562 113.292969 57.519531 111.90625 C 61.1875 110.515625 64.621094 109.53125 64.238281 108.351562 C 63.859375 107.171875 57.925781 108.652344 57.925781 108.652344 C 57.925781 108.652344 65.601562 106.574219 65.082031 105.253906 C 64.5625 103.933594 57.988281 105.730469 57.988281 105.730469 C 57.988281 105.730469 65.519531 103.609375 65.054688 102.101562 C 64.589844 100.59375 57.757812 102.414062 57.757812 102.414062 C 57.757812 102.414062 65.265625 100.539062 63.953125 98.929688 C 62.636719 97.320312 51.863281 100.6875 51.863281 100.6875 C 51.863281 100.6875 52.433594 95.707031 51.070312 96.09375 C 49.710938 96.484375 48.582031 98.835938 47.558594 103.722656 C 46.539062 108.609375 46.945312 112.414062 49.277344 113.128906 Z M 49.277344 113.128906 " fill-opacity="1" fill-rule="nonzero"/><path stroke-linecap="round" transform="matrix(0.436347, 0, 0, 0.436347, 56.848029, 102.611286)" fill="none" stroke-linejoin="round" d="M 8.933411 -2.546797 C 8.933411 -2.546797 -8.92617 2.546988 -8.92617 2.546988 " stroke="#313131" stroke-width="2" stroke-opacity="1" stroke-miterlimit="4"/><path stroke-linecap="round" transform="matrix(0.436347, 0, 0, 0.436347, 57.520001, 105.699308)" fill="none" stroke-linejoin="round" d="M 10.472964 -3.160322 C 10.472964 -3.160322 -10.466163 3.159911 -10.466163 3.159911 " stroke="#313131" stroke-width="2" stroke-opacity="1" stroke-miterlimit="4"/><path stroke-linecap="round" transform="matrix(0.436347, 0, 0, 0.436347, 57.520001, 108.683919)" fill="none" stroke-linejoin="round" d="M 10.472964 -3.169815 C 10.472964 -3.169815 -10.466163 3.168322 -10.466163 3.168322 " stroke="#313131" stroke-width="2" stroke-opacity="1" stroke-miterlimit="4"/><path fill="#ffdab4" d="M 105.695312 66.421875 C 107.09375 72.984375 110.367188 76.445312 115.484375 79.492188 C 120.601562 82.539062 126.71875 82.488281 129.796875 75.839844 C 132.878906 69.191406 132.863281 61.324219 130.660156 55.164062 C 128.453125 49.003906 119.171875 44.511719 112.402344 48.621094 C 105.628906 52.730469 104.296875 59.859375 105.695312 66.421875 Z M 105.695312 66.421875 " fill-opacity="1" fill-rule="nonzero"/><path fill="#ffdab4" d="M 103.140625 63.980469 C 101.527344 64.90625 101.246094 67.699219 102.550781 69.59375 C 103.859375 71.488281 105.566406 72.074219 107.058594 71.464844 C 108.554688 70.851562 108.957031 68.414062 108.160156 66.238281 C 107.367188 64.0625 104.753906 63.054688 103.140625 63.980469 Z M 103.140625 63.980469 " fill-opacity="1" fill-rule="nonzero"/><path stroke-linecap="round" transform="matrix(0.436347, 0, 0, 0.436347, 105.612831, 67.081752)" fill="none" stroke-linejoin="round" d="M -4.609337 -4.206879 C -4.609337 -4.206879 -1.422364 -6.221118 1.594518 -2.720819 C 4.611399 0.788432 2.910487 6.2224 2.910487 6.2224 " stroke="#313131" stroke-width="2" stroke-opacity="1" stroke-miterlimit="4"/><path stroke-linecap="round" transform="matrix(0.436347, 0, 0, 0.436347, 106.008147, 67.612787)" fill="none" stroke-linejoin="round" d="M -2.471566 -0.634472 C -2.471566 -0.634472 -1.495779 -0.929894 -0.108193 -0.634472 C 1.288346 -0.339051 2.470032 0.932157 2.470032 0.932157 " stroke="#313131" stroke-width="2" stroke-opacity="1" stroke-miterlimit="4"/><path stroke-linecap="round" transform="matrix(0.436347, 0, 0, 0.436347, 123.873059, 69.688924)" fill="none" stroke-linejoin="round" d="M -0.586396 -6.144453 C -0.586396 -6.144453 2.126112 3.953596 2.126112 3.953596 C 2.126112 3.953596 -2.135121 6.137925 -2.135121 6.137925 " stroke="#313131" stroke-width="2" stroke-opacity="1" stroke-miterlimit="4"/><path stroke-linecap="round" transform="matrix(0.436347, 0, 0, 0.436347, 122.381188, 74.988356)" fill="none" stroke-linejoin="round" d="M -6.898401 -1.459376 C -6.898401 -1.459376 -3.997898 1.459031 0.621422 1.459031 C 5.240742 1.459031 6.896894 -0.832724 6.896894 -0.832724 " stroke="#313131" stroke-width="2" stroke-opacity="1" stroke-miterlimit="4"/><path fill="#313131" d="M 120.242188 62.289062 C 120.3125 61.894531 119.152344 60.785156 117.539062 60.507812 C 115.921875 60.230469 114.460938 60.890625 114.390625 61.28125 C 114.324219 61.675781 115.65625 61.773438 117.273438 62.054688 C 118.886719 62.332031 120.175781 62.683594 120.242188 62.289062 Z M 120.242188 62.289062 " fill-opacity="1" fill-rule="nonzero"/><path fill="#313131" d="M 125.023438 62.59375 C 124.953125 62.199219 126.101562 61.078125 127.714844 60.789062 C 129.328125 60.496094 130.796875 61.144531 130.867188 61.535156 C 130.9375 61.929688 129.609375 62.039062 127.992188 62.332031 C 126.378906 62.625 125.09375 62.984375 125.023438 62.59375 Z M 125.023438 62.59375 " fill-opacity="1" fill-rule="nonzero"/><path fill="#f6efe3" d="M 120.390625 66.539062 C 120.390625 66.539062 118.921875 64.054688 116.644531 63.652344 C 114.367188 63.25 112.140625 65.082031 112.140625 65.082031 C 112.140625 65.082031 113.605469 67.5625 115.882812 67.964844 C 118.164062 68.367188 120.390625 66.539062 120.390625 66.539062 Z M 120.390625 66.539062 " fill-opacity="1" fill-rule="nonzero"/><path fill="#313131" d="M 119.738281 66.988281 C 118.914062 67.503906 117.414062 68.234375 115.886719 67.964844 C 115.574219 67.910156 115.273438 67.816406 114.996094 67.695312 C 114.933594 67.476562 114.898438 67.246094 114.898438 67.007812 C 114.898438 65.671875 115.980469 64.585938 117.316406 64.585938 C 118.652344 64.585938 119.730469 65.660156 119.738281 66.988281 Z M 119.738281 66.988281 " fill-opacity="1" fill-rule="nonzero"/><path fill="#f6efe3" d="M 131.679688 65.472656 C 131.679688 65.472656 130.519531 67.898438 128.625 68.234375 C 126.726562 68.570312 124.808594 66.683594 124.808594 66.683594 C 124.808594 66.683594 125.96875 64.257812 127.863281 63.921875 C 129.761719 63.589844 131.679688 65.472656 131.679688 65.472656 Z M 131.679688 65.472656 " fill-opacity="1" fill-rule="nonzero"/><path fill="#313131" d="M 131.398438 65.976562 C 130.945312 66.703125 129.96875 67.996094 128.625 68.234375 C 128.082031 68.328125 127.535156 68.242188 127.035156 68.074219 C 126.875 67.753906 126.785156 67.390625 126.785156 67.007812 C 126.785156 65.671875 127.871094 64.585938 129.210938 64.585938 C 130.175781 64.585938 131.011719 65.152344 131.398438 65.976562 Z M 131.398438 65.976562 " fill-opacity="1" fill-rule="nonzero"/><path fill="#313131" d="M 124.375 53.398438 C 124.375 53.398438 118.792969 61.226562 114.886719 62.246094 C 110.980469 63.269531 110.6875 60.714844 110.6875 60.714844 C 110.6875 60.714844 109.496094 67.175781 106.335938 67.007812 C 103.175781 66.84375 101.566406 61.777344 102.6875 55.875 C 103.808594 49.96875 108.515625 45.398438 113.882812 44.816406 C 119.25 44.234375 124.117188 46.175781 124.117188 46.175781 C 124.117188 46.175781 127.753906 44.546875 131.886719 48.585938 C 136.019531 52.621094 134.179688 65.160156 132.222656 64.996094 C 130.269531 64.832031 124.375 53.398438 124.375 53.398438 Z M 124.375 53.398438 " fill-opacity="1" fill-rule="nonzero"/><path stroke-linecap="round" transform="matrix(0.436347, 0, 0, 0.436347, 180.690621, 114.044441)" fill-opacity="1" fill="#ffdab4" fill-rule="nonzero" stroke-linejoin="round" d="M -2.791278 10.873513 C -7.321077 10.291621 -6.282625 -6.833881 -2.003487 -9.143541 C 2.27565 -11.462154 7.324675 -8.713837 6.214606 -3.602148 C 5.104536 1.509542 1.73852 11.455404 -2.791278 10.873513 Z M -2.791278 10.873513 " stroke="#313131" stroke-width="2" stroke-opacity="1" stroke-miterlimit="4"/><path fill="#12345c" d="M 176.121094 133.792969 C 175.34375 133.511719 174.941406 132.652344 175.222656 131.871094 C 175.222656 131.871094 186.515625 100.847656 186.515625 100.847656 C 186.515625 100.847656 189.335938 101.871094 189.335938 101.871094 C 189.335938 101.871094 178.042969 132.898438 178.042969 132.898438 C 177.761719 133.675781 176.898438 134.078125 176.121094 133.792969 Z M 176.121094 133.792969 " fill-opacity="1" fill-rule="nonzero"/><path fill="#313131" d="M 185.007812 104.988281 C 185.007812 104.988281 188.203125 104.988281 188.203125 104.988281 C 188.203125 104.988281 189.335938 101.871094 189.335938 101.871094 C 189.335938 101.871094 186.515625 100.847656 186.515625 100.847656 C 186.515625 100.847656 185.007812 104.988281 185.007812 104.988281 Z M 185.007812 104.988281 " fill-opacity="1" fill-rule="nonzero"/><path fill="#ffdab4" d="M 183.679688 124.265625 C 181.050781 124.679688 177.339844 122.03125 177.292969 121.019531 C 177.246094 120.007812 178.6875 119.820312 178.6875 119.820312 C 178.6875 119.820312 177.730469 118.890625 177.945312 117.726562 C 178.15625 116.5625 179.773438 116.710938 179.773438 116.710938 C 179.773438 116.710938 178.941406 115.765625 179.421875 114.648438 C 179.902344 113.535156 181.636719 113.925781 181.636719 113.925781 C 181.636719 113.925781 180.726562 112.40625 181.585938 111.597656 C 182.441406 110.785156 187.910156 111.804688 188.554688 114.148438 C 189.203125 116.488281 186.3125 123.847656 183.679688 124.265625 Z M 183.679688 124.265625 " fill-opacity="1" fill-rule="nonzero"/><path stroke-linecap="round" transform="matrix(0.436347, 0, 0, 0.436347, 183.872027, 114.896189)" fill="none" stroke-linejoin="round" d="M -5.113829 -2.223938 C -5.113829 -2.223938 5.118502 2.225291 5.118502 2.225291 " stroke="#313131" stroke-width="2" stroke-opacity="1" stroke-miterlimit="4"/><path stroke-linecap="round" transform="matrix(0.436347, 0, 0, 0.436347, 182.209548, 117.869888)" fill="none" stroke-linejoin="round" d="M -5.582969 -2.65603 C -5.582969 -2.65603 5.58934 2.652607 5.58934 2.652607 " stroke="#313131" stroke-width="2" stroke-opacity="1" stroke-miterlimit="4"/><path stroke-linecap="round" transform="matrix(0.436347, 0, 0, 0.436347, 180.828523, 121.011576)" fill="none" stroke-linejoin="round" d="M -4.906701 -2.730085 C -4.906701 -2.730085 4.904878 2.730739 4.904878 2.730739 " stroke="#313131" stroke-width="2" stroke-opacity="1" stroke-miterlimit="4"/><path stroke-linecap="round" transform="matrix(0.436347, 0, 0, 0.436347, 182.902039, 117.302204)" fill="none" stroke-linejoin="round" d="M -4.752904 14.937914 C -9.032041 13.237001 -12.783001 10.05898 -12.854618 8.519207 C -12.962044 6.200595 -9.658693 5.770891 -9.658693 5.770891 C -9.658693 5.770891 -11.851975 3.640274 -11.359606 0.972527 C -10.876188 -1.69522 -7.16999 -1.355037 -7.16999 -1.355037 C -7.16999 -1.355037 -9.076802 -3.521463 -7.975685 -6.081784 C -6.865616 -8.633152 -2.890852 -7.737935 -2.890852 -7.737935 C -2.890852 -7.737935 -4.976708 -11.22033 -3.016182 -13.082381 C -1.055657 -14.935481 11.477382 -12.598964 12.95449 -7.227661 " stroke="#313131" stroke-width="2" stroke-opacity="1" stroke-miterlimit="4"/><path fill="#12345c" d="M 199.796875 68.757812 C 190.308594 65.300781 179.816406 70.195312 176.359375 79.683594 C 172.910156 89.167969 177.800781 99.660156 187.289062 103.113281 C 196.777344 106.570312 207.269531 101.675781 210.71875 92.1875 C 214.171875 82.699219 209.285156 72.210938 199.796875 68.757812 Z M 188.316406 100.296875 C 180.382812 97.40625 176.292969 88.640625 179.179688 80.710938 C 182.066406 72.777344 190.835938 68.6875 198.769531 71.574219 C 206.699219 74.460938 210.789062 83.230469 207.898438 91.164062 C 205.015625 99.09375 196.246094 103.179688 188.316406 100.296875 Z M 188.316406 100.296875 " fill-opacity="1" fill-rule="nonzero"/><path stroke-linecap="round" transform="matrix(0.436347, 0, 0, 0.436347, 191.814426, 93.125983)" fill="none" stroke-linejoin="round" d="M -35.419202 -30.806673 C -43.323969 -9.070802 -32.115851 14.974729 -10.371028 22.888448 C 11.373795 30.811119 35.419326 19.594049 43.324093 -2.141822 " stroke="#313131" stroke-width="2" stroke-opacity="1" stroke-miterlimit="4"/></svg>